<?xml version="1.0" encoding="utf-8"?>
<!-- Generator: Adobe Adobe Illustrator 24.2.0, SVG Export Plug-In . SVG Version: 6.00 Build 0)  -->
<svg version="1.1" xmlns="http://www.w3.org/2000/svg" xmlns:xlink="http://www.w3.org/1999/xlink" x="0px" y="0px"
	 viewBox="0 0 500 500" style="enable-background:new 0 0 500 500;" xml:space="preserve">
<style type="text/css">
	.st0{fill:#F5F5F5;}
	.st1{fill:#E0E0E0;}
	.st2{fill:#FFFFFF;}
	.st3{fill:#FAFAFA;}
	.st4{fill:#EBEBEB;}
	.st5{fill:#455A64;}
	.st6{fill:#263238;}
	.st7{fill:#FF725E;}
	.st8{opacity:0.2;}
	.st9{fill:#6F4439;}
	.st10{fill:#AE7461;}
	.st11{opacity:0.3;}
</style>
<g id="Background_Complete">
	<g>
		<g>
			<path class="st0" d="M30.71,160.76c1.39-0.84,2.88-1.48,4.41-1.92l0.91-4.36l7.37-0.13l1.06,4.33c1.54,0.38,3.05,0.97,4.47,1.76
				l3.73-2.44l5.3,5.12l-2.31,3.81c0.84,1.39,1.48,2.88,1.92,4.41l4.36,0.91l0.13,7.37l-4.33,1.06c-0.38,1.54-0.97,3.05-1.76,4.47
				l2.44,3.73l-5.12,5.3l-3.81-2.31c-1.39,0.84-2.88,1.48-4.41,1.92l-0.91,4.36l-7.37,0.13l-1.06-4.33
				c-1.54-0.38-3.05-0.97-4.47-1.76l-3.73,2.44l-5.3-5.12l2.31-3.81c-0.84-1.39-1.48-2.88-1.92-4.41l-4.36-0.91l-0.13-7.37
				l4.33-1.06c0.38-1.54,0.97-3.05,1.76-4.47l-2.44-3.73l5.12-5.3L30.71,160.76L30.71,160.76z M34.64,170.58
				c-3.03,3.14-2.95,8.15,0.2,11.18c3.14,3.03,8.15,2.95,11.18-0.2c3.03-3.14,2.95-8.15-0.2-11.18
				C42.68,167.35,37.67,167.44,34.64,170.58z"/>
		</g>
	</g>
	<g>
		<g>
			<path class="st0" d="M286.14,37.2c1.19-0.72,2.45-1.26,3.75-1.63l0.77-3.71l6.27-0.11l0.9,3.68c1.31,0.32,2.6,0.82,3.81,1.5
				l3.17-2.08l4.51,4.36l-1.97,3.24c0.72,1.19,1.26,2.45,1.63,3.75l3.71,0.77l0.11,6.27l-3.68,0.9c-0.32,1.31-0.82,2.6-1.5,3.81
				l2.08,3.17l-4.36,4.51l-3.24-1.97c-1.19,0.72-2.45,1.26-3.75,1.63l-0.77,3.71l-6.27,0.11l-0.9-3.68c-1.31-0.32-2.6-0.82-3.81-1.5
				l-3.17,2.08l-4.51-4.36l1.97-3.24c-0.72-1.19-1.26-2.45-1.63-3.75l-3.71-0.77l-0.11-6.27l3.68-0.9c0.32-1.31,0.82-2.6,1.5-3.81
				l-2.08-3.17l4.36-4.51L286.14,37.2L286.14,37.2z M289.49,45.55c-2.58,2.67-2.51,6.94,0.17,9.52c2.67,2.58,6.94,2.51,9.52-0.17
				c2.58-2.67,2.51-6.94-0.17-9.52C296.33,42.81,292.07,42.88,289.49,45.55z"/>
		</g>
	</g>
	<g>
		<g>
			<path class="st0" d="M73.99,41.46c1.93-1.16,3.98-2.05,6.09-2.65l1.26-6.03l10.19-0.18L93,38.59c2.14,0.53,4.22,1.34,6.18,2.43
				l5.15-3.38l7.33,7.08l-3.19,5.27c1.17,1.93,2.05,3.98,2.65,6.1l6.03,1.26l0.18,10.19L111.35,69c-0.53,2.14-1.34,4.22-2.43,6.18
				l3.38,5.15l-7.08,7.33l-5.27-3.19c-1.93,1.16-3.98,2.05-6.1,2.65l-1.26,6.03l-10.19,0.18l-1.47-5.98
				c-2.14-0.53-4.22-1.34-6.18-2.43l-5.15,3.38l-7.33-7.08l3.19-5.27c-1.16-1.93-2.05-3.98-2.65-6.1l-6.03-1.26L56.6,58.4l5.98-1.47
				c0.53-2.14,1.34-4.22,2.43-6.18l-3.38-5.15l7.08-7.33L73.99,41.46L73.99,41.46z M79.43,55.04c-4.2,4.34-4.07,11.27,0.27,15.46
				c4.34,4.19,11.27,4.07,15.46-0.27c4.19-4.34,4.07-11.27-0.27-15.46C90.54,50.57,83.62,50.69,79.43,55.04z"/>
		</g>
	</g>
	<g>
		<g>
			<path class="st0" d="M238.38,215.98c1.39-0.84,2.88-1.48,4.41-1.92l0.91-4.36l7.37-0.13l1.06,4.33c1.54,0.38,3.05,0.97,4.47,1.76
				l3.73-2.44l5.3,5.12l-2.31,3.81c0.84,1.39,1.48,2.88,1.92,4.41l4.36,0.91l0.13,7.37l-4.33,1.06c-0.38,1.54-0.97,3.05-1.76,4.47
				l2.44,3.73l-5.12,5.3l-3.81-2.31c-1.39,0.84-2.88,1.48-4.41,1.92l-0.91,4.36l-7.37,0.13l-1.06-4.33
				c-1.54-0.38-3.05-0.97-4.47-1.76l-3.73,2.44l-5.3-5.12l2.31-3.81c-0.84-1.39-1.48-2.88-1.92-4.41l-4.36-0.91l-0.13-7.37
				l4.33-1.06c0.38-1.54,0.97-3.05,1.76-4.47l-2.44-3.73l5.12-5.3L238.38,215.98L238.38,215.98z M242.31,225.8
				c-3.03,3.14-2.95,8.15,0.2,11.18c3.14,3.03,8.15,2.95,11.18-0.2c3.03-3.14,2.95-8.15-0.2-11.18
				C250.35,222.57,245.35,222.66,242.31,225.8z"/>
		</g>
	</g>
	<g>
		<g>
			<path class="st0" d="M259.15,347.92c1.39-0.84,2.88-1.48,4.41-1.92l0.91-4.36l7.37-0.13l1.06,4.33c1.54,0.38,3.05,0.97,4.47,1.76
				l3.73-2.44l5.3,5.12l-2.31,3.81c0.84,1.39,1.48,2.88,1.92,4.41l4.36,0.91l0.13,7.37l-4.33,1.06c-0.38,1.54-0.97,3.05-1.76,4.47
				l2.44,3.73l-5.12,5.3l-3.81-2.31c-1.39,0.84-2.88,1.48-4.41,1.92l-0.91,4.36l-7.37,0.13l-1.06-4.33
				c-1.54-0.38-3.05-0.97-4.47-1.76l-3.73,2.44l-5.3-5.12l2.31-3.81c-0.84-1.39-1.48-2.88-1.92-4.41l-4.36-0.91l-0.13-7.37
				l4.33-1.06c0.38-1.54,0.97-3.05,1.76-4.47l-2.44-3.73l5.12-5.3L259.15,347.92L259.15,347.92z M263.08,357.74
				c-3.03,3.14-2.95,8.15,0.2,11.18c3.14,3.03,8.15,2.95,11.18-0.2c3.03-3.14,2.95-8.15-0.2-11.18
				C271.12,354.51,266.11,354.6,263.08,357.74z"/>
		</g>
	</g>
	<g>
		<g>
			<path class="st0" d="M82.16,265.36c0.94-0.57,1.94-1,2.97-1.29l0.61-2.94l4.97-0.09l0.72,2.92c1.04,0.26,2.06,0.65,3.02,1.19
				l2.51-1.65l3.58,3.45l-1.56,2.57c0.57,0.94,1,1.94,1.29,2.97l2.94,0.61l0.09,4.97l-2.92,0.72c-0.26,1.04-0.65,2.06-1.19,3.02
				l1.65,2.51l-3.45,3.58l-2.57-1.56c-0.94,0.57-1.94,1-2.97,1.29l-0.61,2.94l-4.97,0.09l-0.72-2.92c-1.04-0.26-2.06-0.65-3.02-1.19
				l-2.51,1.65l-3.58-3.45l1.56-2.57c-0.57-0.94-1-1.94-1.29-2.97l-2.94-0.61l-0.09-4.97l2.92-0.72c0.26-1.04,0.65-2.06,1.19-3.02
				l-1.65-2.51l3.45-3.58L82.16,265.36L82.16,265.36z M84.81,271.98c-2.05,2.12-1.99,5.5,0.13,7.54c2.12,2.05,5.5,1.99,7.54-0.13
				c2.05-2.12,1.99-5.5-0.13-7.54C90.23,269.8,86.86,269.86,84.81,271.98z"/>
		</g>
	</g>
	<g>
		<g>
			<path class="st0" d="M89.54,303.66c1.71-1.04,3.54-1.82,5.42-2.35l1.12-5.36l9.06-0.16l1.3,5.32c1.9,0.47,3.75,1.19,5.5,2.16
				l4.58-3l6.52,6.3l-2.84,4.68c1.04,1.71,1.82,3.54,2.35,5.42l5.36,1.12l0.16,9.06l-5.32,1.3c-0.47,1.9-1.19,3.75-2.16,5.5l3,4.58
				l-6.29,6.52l-4.68-2.84c-1.71,1.04-3.54,1.82-5.42,2.35l-1.12,5.36l-9.06,0.16l-1.3-5.32c-1.9-0.47-3.75-1.19-5.5-2.16l-4.58,3
				L79.12,339l2.84-4.68c-1.04-1.71-1.82-3.54-2.35-5.42l-5.36-1.12l-0.16-9.06l5.32-1.3c0.47-1.9,1.19-3.75,2.16-5.5l-3-4.58
				l6.29-6.52L89.54,303.66L89.54,303.66z M94.37,315.73c-3.73,3.86-3.62,10.02,0.24,13.75c3.86,3.73,10.02,3.62,13.75-0.24
				c3.73-3.86,3.62-10.02-0.24-13.75C104.26,311.76,98.1,311.87,94.37,315.73z"/>
		</g>
	</g>
	<g>
		<g>
			<g>
				<g>
					<rect x="341.15" y="46.08" class="st1" width="137.54" height="231.75"/>
				</g>
			</g>
		</g>
		<g>
			<g>
				<g>
					<rect x="344.86" y="50.44" class="st0" width="129.66" height="223.58"/>
				</g>
			</g>
		</g>
		<g>
			<g>
				<g>
					<g>
						<rect x="409.69" y="62.38" class="st2" width="51.7" height="80.22"/>
					</g>
				</g>
			</g>
			<g>
				<g>
					<g>
						<path class="st1" d="M438.29,69.47c0,1.07-0.86,1.93-1.93,1.93c-1.07,0-1.93-0.86-1.93-1.93c0-1.07,0.86-1.93,1.93-1.93
							C437.42,67.54,438.29,68.41,438.29,69.47z"/>
					</g>
				</g>
			</g>
		</g>
		<g>
			<g>
				<g>
					<g>
						<rect x="357.58" y="164.93" class="st2" width="51.7" height="80.22"/>
					</g>
				</g>
			</g>
			<g>
				<g>
					<g>
						<path class="st1" d="M386.18,172.03c0,1.07-0.86,1.93-1.93,1.93c-1.07,0-1.93-0.86-1.93-1.93c0-1.07,0.86-1.93,1.93-1.93
							C385.32,170.1,386.18,170.96,386.18,172.03z"/>
					</g>
				</g>
			</g>
		</g>
		<g>
			<g>
				<g>
					<g>
						<rect x="356.88" y="62.38" class="st2" width="44.15" height="62.65"/>
					</g>
				</g>
			</g>
			<g>
				<g>
					<g>
						<path class="st1" d="M380.56,68.07c0,0.89-0.72,1.6-1.6,1.6c-0.89,0-1.6-0.72-1.6-1.6c0-0.89,0.72-1.6,1.6-1.6
							C379.84,66.47,380.56,67.19,380.56,68.07z"/>
					</g>
				</g>
			</g>
		</g>
		<g>
			<g>
				<g>
					<g>
						
							<rect x="417.19" y="168.62" transform="matrix(0.9937 -0.1121 0.1121 0.9937 -17.5981 50.5751)" class="st2" width="47.52" height="26.33"/>
					</g>
				</g>
			</g>
			<g>
				<g>
					<g>
						<circle class="st1" cx="440.03" cy="173.66" r="1.64"/>
					</g>
				</g>
			</g>
		</g>
		<g>
			<g>
				<g>
					<g>
						<path class="st1" d="M402.38,183.23c0,0.21-8.12,0.39-18.13,0.39c-10.02,0-18.13-0.17-18.13-0.39c0-0.21,8.12-0.39,18.13-0.39
							C394.27,182.85,402.38,183.02,402.38,183.23z"/>
					</g>
				</g>
			</g>
		</g>
		<g>
			<g>
				<g>
					<g>
						<path class="st1" d="M402.38,188.97c0,0.21-8.12,0.39-18.13,0.39c-10.02,0-18.13-0.17-18.13-0.39c0-0.21,8.12-0.39,18.13-0.39
							C394.27,188.59,402.38,188.76,402.38,188.97z"/>
					</g>
				</g>
			</g>
		</g>
		<g>
			<g>
				<g>
					<g>
						<path class="st1" d="M402.38,194.71c0,0.21-8.12,0.39-18.13,0.39c-10.02,0-18.13-0.17-18.13-0.39c0-0.21,8.12-0.39,18.13-0.39
							C394.27,194.33,402.38,194.5,402.38,194.71z"/>
					</g>
				</g>
			</g>
		</g>
		<g>
			<g>
				<g>
					<g>
						<path class="st1" d="M402.38,200.45c0,0.21-8.12,0.39-18.13,0.39c-10.02,0-18.13-0.17-18.13-0.39c0-0.21,8.12-0.39,18.13-0.39
							C394.27,200.07,402.38,200.24,402.38,200.45z"/>
					</g>
				</g>
			</g>
		</g>
		<g>
			<g>
				<g>
					<g>
						<path class="st1" d="M402.38,206.19c0,0.21-8.12,0.39-18.13,0.39c-10.02,0-18.13-0.17-18.13-0.39c0-0.21,8.12-0.39,18.13-0.39
							C394.27,205.81,402.38,205.98,402.38,206.19z"/>
					</g>
				</g>
			</g>
		</g>
		<g>
			<g>
				<g>
					<g>
						<path class="st1" d="M402.38,211.93c0,0.21-8.12,0.39-18.13,0.39c-10.02,0-18.13-0.17-18.13-0.39s8.12-0.39,18.13-0.39
							C394.27,211.55,402.38,211.72,402.38,211.93z"/>
					</g>
				</g>
			</g>
		</g>
		<g>
			<g>
				<g>
					<g>
						<path class="st1" d="M402.38,217.67c0,0.21-8.12,0.39-18.13,0.39c-10.02,0-18.13-0.17-18.13-0.39s8.12-0.39,18.13-0.39
							C394.27,217.29,402.38,217.46,402.38,217.67z"/>
					</g>
				</g>
			</g>
		</g>
		<g>
			<g>
				<g>
					<g>
						<path class="st1" d="M458.66,177.08c0.03,0.21-7.99,1.52-17.9,2.91c-9.92,1.4-17.98,2.36-18.01,2.15
							c-0.03-0.21,7.98-1.52,17.9-2.91C450.57,177.84,458.63,176.87,458.66,177.08z"/>
					</g>
				</g>
			</g>
		</g>
		<g>
			<g>
				<g>
					<g>
						<path class="st1" d="M459.38,180.67c0.03,0.21-7.99,1.52-17.9,2.91c-9.92,1.4-17.98,2.36-18.01,2.15
							c-0.03-0.21,7.98-1.52,17.9-2.92C451.29,181.43,459.35,180.46,459.38,180.67z"/>
					</g>
				</g>
			</g>
		</g>
		<g>
			<g>
				<g>
					<g>
						<path class="st1" d="M460.04,183.99c0.03,0.21-7.98,1.52-17.9,2.92c-9.92,1.4-17.98,2.36-18.01,2.15
							c-0.03-0.21,7.98-1.52,17.9-2.92C451.95,184.74,460.01,183.78,460.04,183.99z"/>
					</g>
				</g>
			</g>
		</g>
		<g>
			<g>
				<g>
					<g>
						<path class="st1" d="M456.84,79.16c0,0.21-9.17,0.39-20.48,0.39c-11.32,0-20.49-0.17-20.49-0.39c0-0.21,9.17-0.39,20.49-0.39
							C447.67,78.78,456.84,78.95,456.84,79.16z"/>
					</g>
				</g>
			</g>
		</g>
		<g>
			<g>
				<g>
					<g>
						<path class="st1" d="M456.84,82.58c0,0.21-9.17,0.39-20.48,0.39c-11.32,0-20.49-0.17-20.49-0.39s9.17-0.39,20.49-0.39
							C447.67,82.19,456.84,82.36,456.84,82.58z"/>
					</g>
				</g>
			</g>
		</g>
		<g>
			<g>
				<g>
					<g>
						<path class="st1" d="M456.84,85.99c0,0.21-9.17,0.39-20.48,0.39c-11.32,0-20.49-0.17-20.49-0.39c0-0.21,9.17-0.39,20.49-0.39
							C447.67,85.6,456.84,85.78,456.84,85.99z"/>
					</g>
				</g>
			</g>
		</g>
		<g>
			<g>
				<g>
					<g>
						<path class="st1" d="M456.84,89.4c0,0.21-9.17,0.39-20.48,0.39c-11.32,0-20.49-0.17-20.49-0.39c0-0.21,9.17-0.39,20.49-0.39
							C447.67,89.02,456.84,89.19,456.84,89.4z"/>
					</g>
				</g>
			</g>
		</g>
		<g>
			<g>
				<g>
					<g>
						<path class="st1" d="M456.84,92.82c0,0.21-9.17,0.39-20.48,0.39c-11.32,0-20.49-0.17-20.49-0.39c0-0.21,9.17-0.39,20.49-0.39
							C447.67,92.43,456.84,92.6,456.84,92.82z"/>
					</g>
				</g>
			</g>
		</g>
		<g>
			<g>
				<g>
					<g>
						<path class="st1" d="M456.84,96.23c0,0.21-9.17,0.39-20.48,0.39c-11.32,0-20.49-0.17-20.49-0.39s9.17-0.39,20.49-0.39
							C447.67,95.84,456.84,96.02,456.84,96.23z"/>
					</g>
				</g>
			</g>
		</g>
		<g>
			<g>
				<g>
					<g>
						<path class="st1" d="M456.84,99.64c0,0.21-9.17,0.39-20.48,0.39c-11.32,0-20.49-0.17-20.49-0.39c0-0.21,9.17-0.39,20.49-0.39
							C447.67,99.26,456.84,99.43,456.84,99.64z"/>
					</g>
				</g>
			</g>
		</g>
		<g>
			<g>
				<g>
					<g>
						<path class="st1" d="M456.84,109.77c0,0.21-9.17,0.39-20.48,0.39c-11.32,0-20.49-0.17-20.49-0.39c0-0.21,9.17-0.39,20.49-0.39
							C447.67,109.38,456.84,109.56,456.84,109.77z"/>
					</g>
				</g>
			</g>
		</g>
		<g>
			<g>
				<g>
					<g>
						<path class="st1" d="M457.13,113.37c0,0.21-9.17,0.39-20.48,0.39c-11.32,0-20.49-0.17-20.49-0.39s9.17-0.39,20.49-0.39
							C447.96,112.99,457.13,113.16,457.13,113.37z"/>
					</g>
				</g>
			</g>
		</g>
		<g>
			<g>
				<g>
					<g>
						<path class="st1" d="M457.42,116.98c0,0.21-9.17,0.39-20.48,0.39c-11.32,0-20.49-0.17-20.49-0.39c0-0.21,9.17-0.39,20.49-0.39
							C448.24,116.59,457.42,116.77,457.42,116.98z"/>
					</g>
				</g>
			</g>
		</g>
		<g>
			<g>
				<g>
					<g>
						<path class="st1" d="M457.7,120.58c0,0.21-9.17,0.39-20.48,0.39c-11.32,0-20.49-0.17-20.49-0.39s9.17-0.39,20.49-0.39
							C448.53,120.2,457.7,120.37,457.7,120.58z"/>
					</g>
				</g>
			</g>
		</g>
		<g>
			<g>
				<g>
					<g>
						<path class="st1" d="M457.99,124.19c0,0.21-9.17,0.39-20.48,0.39c-11.32,0-20.49-0.17-20.49-0.39c0-0.21,9.17-0.39,20.49-0.39
							C448.82,123.8,457.99,123.98,457.99,124.19z"/>
					</g>
				</g>
			</g>
		</g>
		<g>
			<g>
				<g>
					<g>
						<path class="st1" d="M458.28,127.79c0,0.21-9.17,0.39-20.48,0.39c-11.32,0-20.48-0.17-20.48-0.39c0-0.21,9.17-0.39,20.48-0.39
							C449.11,127.41,458.28,127.58,458.28,127.79z"/>
					</g>
				</g>
			</g>
		</g>
	</g>
	<g>
		<g>
			<g>
				<g>
					<path class="st0" d="M170.93,91.76H141.3c-2.05,0-3.71-1.66-3.71-3.71V47.03c0-2.05,1.66-3.71,3.71-3.71h18.8l14.55,15v29.73
						C174.64,90.1,172.98,91.76,170.93,91.76z"/>
				</g>
			</g>
			<g>
				<g>
					<path class="st1" d="M170.11,91.76h-28c-2.5,0-4.53-2.03-4.53-4.53V77.07h37.05v10.17C174.64,89.74,172.61,91.76,170.11,91.76z
						"/>
				</g>
			</g>
			<g>
				<g>
					<path class="st3" d="M150.72,86.55l0.93-1.12c0.39,0.53,0.83,0.8,1.35,0.8c0.67,0,1.03-0.4,1.03-1.2v-3.45h-2.55v-1.35h4.22
						v4.7c0,1.79-0.9,2.67-2.61,2.67C152.11,87.6,151.25,87.23,150.72,86.55z"/>
				</g>
				<g>
					<path class="st3" d="M156.7,86.96l0.54-1.16c0.5,0.32,1.25,0.54,1.94,0.54c0.75,0,1.03-0.2,1.03-0.51
						c0-0.91-3.37,0.02-3.37-2.21c0-1.06,0.95-1.8,2.58-1.8c0.77,0,1.62,0.18,2.14,0.49l-0.54,1.15c-0.55-0.31-1.1-0.41-1.61-0.41
						c-0.73,0-1.04,0.23-1.04,0.52c0,0.95,3.37,0.03,3.37,2.23c0,1.04-0.96,1.77-2.63,1.77C158.17,87.56,157.21,87.3,156.7,86.96z"
						/>
				</g>
			</g>
			<g>
				<g>
					<path class="st3" d="M145.44,69.35l1.16-1.36c0.76,1.08,1.74,1.66,2.92,1.66c1.58,0,2.4-0.96,2.4-2.84v-7.87h-5.07v-1.74h7.05
						v9.52c0,3.12-1.52,4.67-4.39,4.67C147.86,71.38,146.34,70.65,145.44,69.35z"/>
				</g>
				<g>
					<path class="st3" d="M156.38,70.09l0.8-1.52c0.9,0.64,2.34,1.1,3.73,1.1c1.78,0,2.52-0.54,2.52-1.44
						c0-2.38-6.71-0.32-6.71-4.55c0-1.9,1.7-3.18,4.43-3.18c1.38,0,2.94,0.36,3.87,0.96l-0.82,1.52c-0.96-0.62-2.02-0.84-3.06-0.84
						c-1.68,0-2.5,0.62-2.5,1.46c0,2.5,6.73,0.46,6.73,4.59c0,1.92-1.76,3.15-4.59,3.15C159,71.34,157.26,70.79,156.38,70.09z"/>
				</g>
			</g>
			<g>
				<g>
					<path class="st4" d="M160.09,43.33v11.55c0,1.9,1.54,3.45,3.45,3.45l11.1,0L160.09,43.33z"/>
				</g>
			</g>
			<g>
				<g>
					<path class="st1" d="M160.24,55.88c0,0-0.15,2.8,3.04,3.72c0.12,0.03,0.24,0.06,0.37,0.08c1.45,0.26,10.99,1.96,10.99,1.74
						c0-0.24,0-3.1,0-3.1h-11.1C163.54,58.32,160.77,58.23,160.24,55.88z"/>
				</g>
			</g>
		</g>
	</g>
</g>
<g id="Background_Simple">
	<path class="st0" d="M351.44,35.76l-1.52,1.04c-12.85,8.8-20.06,23.82-18.24,39.14c0.23,1.97,0.61,3.92,1.13,5.84
		c3.76,13.81,15,25.4,28.82,29.7c8.13,2.53,17.34,2.85,23.97,8.13c8.63,6.87,9.57,19.29,9.83,30.24
		c0.26,10.95,1.23,23.37,9.89,30.21c5.42,4.28,12.86,5.33,19.76,4.58c18.28-1.98,33.98-15.66,41.23-32.36
		c7.26-16.7,6.93-35.87,2.37-53.46c-6.39-24.64-21.49-47.57-43.57-60.64C403.02,25.11,373.8,23.11,351.44,35.76z"/>
	
		<ellipse transform="matrix(0.9232 -0.3844 0.3844 0.9232 -121.014 61.126)" class="st0" cx="92.4" cy="333.28" rx="36.91" ry="36.91"/>
	
		<ellipse transform="matrix(0.2255 -0.9742 0.9742 0.2255 16.1255 143.8357)" class="st0" cx="98.53" cy="61.78" rx="28.84" ry="28.84"/>
</g>
<g id="Table">
	<g>
		<polygon class="st5" points="15.88,445.46 68.66,409.82 324.41,408.6 336.11,446 		"/>
		<polygon class="st5" points="335.45,460.06 15.35,459.83 15.35,444.76 335.59,445.76 		"/>
		<g>
			<path class="st6" d="M327.6,445.68c0,0.14-69.12,0.23-154.37,0.19c-85.27-0.04-154.38-0.19-154.38-0.33
				c0-0.14,69.11-0.23,154.38-0.19C258.48,445.38,327.6,445.53,327.6,445.68z"/>
		</g>
	</g>
</g>
<g id="Files">
	<g>
		<g>
			<g>
				<g>
					<path class="st7" d="M247.97,115.07h-50.25c-3.47,0-6.29-2.82-6.29-6.29V39.22c0-3.47,2.82-6.29,6.29-6.29h31.87l24.67,25.43
						v50.42C254.26,112.25,251.44,115.07,247.97,115.07z"/>
				</g>
			</g>
			<g class="st8">
				<g>
					<path d="M247.78,115.07h-49.87c-3.58,0-6.48-2.9-6.48-6.48v-17.2c0-0.68,0.55-1.24,1.24-1.24h60.35c0.68,0,1.24,0.55,1.24,1.24
						v17.2C254.26,112.17,251.36,115.07,247.78,115.07z"/>
				</g>
			</g>
			<g class="st8">
				<g>
					<path class="st2" d="M229.59,32.94v19.58c0,3.23,2.62,5.85,5.85,5.85l18.82,0L229.59,32.94z"/>
				</g>
			</g>
			<g class="st8">
				<g>
					<path d="M229.84,54.23c0,0-0.25,4.75,5.16,6.31c0.2,0.06,0.41,0.1,0.62,0.14c2.46,0.44,18.64,3.32,18.64,2.95
						c0-0.4,0-5.26,0-5.26h-18.82C235.43,58.36,230.73,58.2,229.84,54.23z"/>
				</g>
			</g>
		</g>
		<g>
			<g>
				<path class="st3" d="M209.41,101.01c0-2.95,2.26-5.05,5.3-5.05c1.69,0,3.1,0.61,4.02,1.73l-1.45,1.34
					c-0.66-0.75-1.48-1.15-2.46-1.15c-1.83,0-3.13,1.28-3.13,3.13c0,1.84,1.3,3.13,3.13,3.13c0.98,0,1.8-0.39,2.46-1.16l1.45,1.34
					c-0.92,1.13-2.33,1.75-4.03,1.75C211.68,106.06,209.41,103.95,209.41,101.01z"/>
			</g>
			<g>
				<path class="st3" d="M219.4,104.93l0.77-1.7c0.82,0.6,2.05,1.02,3.22,1.02c1.34,0,1.88-0.45,1.88-1.05
					c0-1.83-5.68-0.57-5.68-4.2c0-1.66,1.34-3.04,4.12-3.04c1.23,0,2.48,0.29,3.39,0.87l-0.7,1.72c-0.91-0.52-1.84-0.77-2.71-0.77
					c-1.34,0-1.86,0.5-1.86,1.12c0,1.8,5.68,0.56,5.68,4.15c0,1.63-1.35,3.03-4.15,3.03C221.83,106.06,220.27,105.6,219.4,104.93z"
					/>
			</g>
			<g>
				<path class="st3" d="M228.31,104.93l0.77-1.7c0.82,0.6,2.05,1.02,3.23,1.02c1.34,0,1.88-0.45,1.88-1.05
					c0-1.83-5.68-0.57-5.68-4.2c0-1.66,1.34-3.04,4.12-3.04c1.23,0,2.49,0.29,3.39,0.87l-0.7,1.72c-0.91-0.52-1.84-0.77-2.71-0.77
					c-1.34,0-1.86,0.5-1.86,1.12c0,1.8,5.68,0.56,5.68,4.15c0,1.63-1.35,3.03-4.15,3.03C230.73,106.06,229.17,105.6,228.31,104.93z"
					/>
			</g>
		</g>
		<g>
			<g>
				<path class="st3" d="M212.6,69.38c1.03,0.31,1.5,0.97,1.5,2.51v3.59c0,1.05,0.54,1.66,1.64,1.66h0.4v2.74h-1.3
					c-2.81,0-4.24-1.44-4.24-4.02v-4.06c0-0.72-0.38-1.06-0.99-1.06h-0.74v-2.74h0.74c0.61,0,0.99-0.34,0.99-1.06v-4.06
					c0-2.58,1.44-4.02,4.24-4.02h1.3v2.74h-0.4c-1.1,0-1.64,0.61-1.64,1.66v3.59C214.11,68.42,213.64,69.07,212.6,69.38z"/>
			</g>
			<g>
				<path class="st3" d="M236.81,68.01v2.74h-0.74c-0.61,0-0.99,0.34-0.99,1.06v4.06c0,2.58-1.44,4.02-4.24,4.02h-1.3v-2.74h0.4
					c1.1,0,1.64-0.61,1.64-1.66V71.9c0-1.55,0.47-2.2,1.5-2.51c-1.03-0.31-1.5-0.97-1.5-2.51v-3.59c0-1.06-0.54-1.66-1.64-1.66h-0.4
					v-2.74h1.3c2.81,0,4.24,1.44,4.24,4.02v4.06c0,0.72,0.38,1.06,0.99,1.06H236.81z"/>
			</g>
		</g>
	</g>
	<g>
		<g>
			<g>
				<g>
					<path class="st7" d="M318.34,165.57h-51.01c-3.53,0-6.38-2.86-6.38-6.38V88.57c0-3.53,2.86-6.38,6.38-6.38h32.35L324.73,108
						v51.18C324.73,162.71,321.87,165.57,318.34,165.57z"/>
				</g>
			</g>
			<g class="st8">
				<g>
					<path d="M317.83,165.57h-49.99c-3.81,0-6.9-3.09-6.9-6.9v-18.4h63.78v18.4C324.73,162.48,321.64,165.57,317.83,165.57z"/>
				</g>
			</g>
			<g class="st8">
				<g>
					<path class="st2" d="M299.68,82.19v19.87c0,3.28,2.66,5.94,5.94,5.94l19.11,0L299.68,82.19z"/>
				</g>
			</g>
			<g class="st8">
				<g>
					<path d="M299.94,103.81c0,0-0.25,4.82,5.24,6.4c0.21,0.06,0.42,0.1,0.63,0.14c2.49,0.45,18.92,3.37,18.92,2.99
						c0-0.41,0-5.34,0-5.34h-19.11C305.62,108,300.85,107.84,299.94,103.81z"/>
				</g>
			</g>
		</g>
		<g>
			<g>
				<path class="st3" d="M287.14,119.38l-7.66,2.81l7.66,2.78v2.87l-10.94-4.16v-2.99l10.94-4.16V119.38z"/>
			</g>
			<g>
				<path class="st3" d="M295.37,110.87h3.2l-7.59,21.66h-3.2L295.37,110.87z"/>
			</g>
			<g>
				<path class="st3" d="M309.92,120.69v2.99l-10.94,4.16v-2.87l7.66-2.78l-7.66-2.81v-2.85L309.92,120.69z"/>
			</g>
		</g>
		<g>
			<g>
				<path class="st3" d="M284.53,149.68v8.57h-1.98v-3.51h-3.89v3.51h-1.98v-8.57h1.98v3.38h3.89v-3.38H284.53z"/>
			</g>
			<g>
				<path class="st3" d="M288.34,151.3h-2.74v-1.62h7.47v1.62h-2.74v6.96h-1.98V151.3z"/>
			</g>
			<g>
				<path class="st3" d="M301.93,158.25l-0.01-5.14l-2.52,4.24h-0.89l-2.51-4.13v5.03h-1.86v-8.57h1.64l3.21,5.33l3.16-5.33h1.63
					l0.02,8.57H301.93z"/>
			</g>
			<g>
				<path class="st3" d="M305.82,149.68h1.98v6.96h4.3v1.62h-6.28V149.68z"/>
			</g>
		</g>
	</g>
</g>
<g id="Windows">
	<g>
		<path class="st2" d="M138.71,267.52H46.09c-1.69,0-3.06-1.37-3.06-3.06V111.43c0-1.69,1.37-3.06,3.06-3.06h92.62
			c1.69,0,3.06,1.37,3.06,3.06v153.03C141.77,266.15,140.4,267.52,138.71,267.52z"/>
		<path class="st1" d="M141.77,126.15H43.03v-14.18c0-1.99,1.62-3.61,3.61-3.61h91.66c1.92,0,3.47,1.55,3.47,3.47V126.15z"/>
		<g>
			<path class="st6" d="M138.46,267.52c-0.01-0.03,0.47,0.04,1.27-0.28c0.4-0.17,0.86-0.47,1.26-0.96c0.39-0.5,0.72-1.2,0.72-2.05
				c-0.01-3.41-0.03-8.41-0.05-14.86c-0.02-12.92-0.05-31.59-0.08-54.66c-0.02-23.08-0.03-50.56-0.06-81.06l0-1.43
				c0-0.49,0.01-0.93-0.12-1.36c-0.23-0.86-0.88-1.6-1.69-1.96c-0.41-0.19-0.85-0.28-1.31-0.27l-1.45,0c-0.97,0-1.94,0-2.92,0
				c-3.91,0-7.86,0-11.85,0c-7.99,0-16.14,0-24.44,0.01c-16.6,0-33.79,0-51.39,0.01c-1.02-0.01-2.01,0.53-2.57,1.38
				c-0.27,0.43-0.45,0.91-0.49,1.42c-0.03,0.51-0.01,1.08-0.01,1.62c0,2.19,0,4.37,0,6.54c0,4.35,0,8.67,0,12.95
				c0,8.58,0,17.02,0,25.33c-0.01,16.6-0.01,32.62-0.02,47.88c-0.01,15.26-0.02,29.76-0.02,43.32c0,3.39,0,6.73-0.01,10
				c0,1.64,0,3.26,0,4.86c-0.13,1.56,0.99,3.01,2.46,3.31c0.71,0.13,1.54,0.05,2.3,0.07c0.78,0,1.55,0,2.33,0c1.54,0,3.07,0,4.58,0
				c3.02,0,5.97,0.01,8.86,0.01c23.07,0.04,41.74,0.06,54.66,0.08c6.45,0.02,11.45,0.04,14.86,0.05c1.69,0.01,2.98,0.02,3.86,0.03
				C138.01,267.5,138.46,267.52,138.46,267.52s-0.45,0.02-1.32,0.03c-0.88,0.01-2.17,0.01-3.86,0.03
				c-3.41,0.01-8.41,0.03-14.86,0.05c-12.91,0.02-31.58,0.05-54.66,0.08c-2.88,0-5.84,0.01-8.86,0.01c-1.51,0-3.04,0-4.58,0
				c-0.77,0-1.55,0-2.33,0c-0.79-0.03-1.54,0.07-2.39-0.08c-0.82-0.17-1.57-0.65-2.08-1.33c-0.51-0.66-0.76-1.55-0.71-2.37
				c0-1.61,0-3.23,0-4.86c0-3.27,0-6.61-0.01-10c-0.01-13.57-0.02-28.07-0.02-43.32c0-15.26-0.01-31.27-0.02-47.88
				c0-8.3,0-16.75,0-25.33c0-4.29,0-8.61,0-12.95c0-2.17,0-4.35,0-6.54c0.01-0.56-0.01-1.07,0.01-1.66
				c0.04-0.59,0.25-1.16,0.57-1.66c0.64-1,1.81-1.63,3-1.62c17.6,0,34.79,0,51.39,0.01c8.3,0,16.45,0,24.44,0.01
				c3.99,0,7.94,0,11.85,0c0.98,0,1.95,0,2.92,0l1.45,0c0.51-0.01,1.04,0.1,1.51,0.32c0.94,0.43,1.69,1.28,1.95,2.27
				c0.15,0.5,0.14,1.03,0.13,1.49l0,1.43c-0.02,30.51-0.04,57.99-0.06,81.06c-0.04,23.07-0.06,41.74-0.08,54.66
				c-0.02,6.45-0.04,11.45-0.05,14.86c-0.01,0.87-0.36,1.59-0.76,2.1c-0.42,0.5-0.9,0.8-1.31,0.96c-0.41,0.17-0.74,0.2-0.96,0.23
				C138.57,267.52,138.46,267.52,138.46,267.52z"/>
		</g>
		<path class="st2" d="M57.59,118.65c0,1.61-1.3,2.91-2.91,2.91s-2.91-1.3-2.91-2.91c0-1.61,1.3-2.91,2.91-2.91
			S57.59,117.04,57.59,118.65z"/>
		<circle class="st2" cx="63.64" cy="118.65" r="2.91"/>
		<circle class="st2" cx="72.6" cy="118.65" r="2.91"/>
		<g>
			<path class="st6" d="M86,150.26H67.81c-1.09,0-1.97-0.88-1.97-1.97l0,0c0-1.09,0.88-1.97,1.97-1.97H86
				c1.09,0,1.97,0.88,1.97,1.97l0,0C87.97,149.38,87.09,150.26,86,150.26z"/>
		</g>
		<g>
			<path class="st1" d="M86,160.59H67.81c-1.09,0-1.97-0.88-1.97-1.97l0,0c0-1.09,0.88-1.97,1.97-1.97H86
				c1.09,0,1.97,0.88,1.97,1.97l0,0C87.97,159.71,87.09,160.59,86,160.59z"/>
		</g>
		<g>
			<path class="st1" d="M86.52,188.88H68.33c-1.09,0-1.97-0.88-1.97-1.97l0,0c0-1.09,0.88-1.97,1.97-1.97h18.18
				c1.09,0,1.97,0.88,1.97,1.97l0,0C88.49,188,87.61,188.88,86.52,188.88z"/>
		</g>
		<g>
			<path class="st7" d="M86,171.26H67.81c-1.09,0-1.97-0.88-1.97-1.97l0,0c0-1.09,0.88-1.97,1.97-1.97H86
				c1.09,0,1.97,0.88,1.97,1.97l0,0C87.97,170.38,87.09,171.26,86,171.26z"/>
		</g>
		<g>
			<path class="st7" d="M86,230.78H67.81c-1.09,0-1.97-0.88-1.97-1.97l0,0c0-1.09,0.88-1.97,1.97-1.97H86
				c1.09,0,1.97,0.88,1.97,1.97l0,0C87.97,229.89,87.09,230.78,86,230.78z"/>
		</g>
		<g>
			<path class="st5" d="M115.13,150.26H96.94c-1.09,0-1.97-0.88-1.97-1.97l0,0c0-1.09,0.88-1.97,1.97-1.97h18.18
				c1.09,0,1.97,0.88,1.97,1.97l0,0C117.1,149.38,116.22,150.26,115.13,150.26z"/>
		</g>
		<g>
			<path class="st6" d="M134.82,160.59H96.77c-1,0-1.8-0.88-1.8-1.97l0,0c0-1.09,0.81-1.97,1.8-1.97h38.04c1,0,1.8,0.88,1.8,1.97
				l0,0C136.62,159.71,135.81,160.59,134.82,160.59z"/>
		</g>
		<g>
			<path class="st1" d="M133.79,171.26h-38.3c-1.02,0-1.85-0.88-1.85-1.97l0,0c0-1.09,0.83-1.97,1.85-1.97h38.3
				c1.02,0,1.85,0.88,1.85,1.97l0,0C135.65,170.38,134.82,171.26,133.79,171.26z"/>
		</g>
		<g>
			<path class="st1" d="M106.12,179.89h-38.3c-1.02,0-1.85-0.88-1.85-1.97l0,0c0-1.09,0.83-1.97,1.85-1.97h38.3
				c1.02,0,1.85,0.88,1.85,1.97l0,0C107.98,179.01,107.15,179.89,106.12,179.89z"/>
		</g>
		<g>
			<path class="st5" d="M58.9,148.29c0,1.11-0.9,2-2,2c-1.11,0-2-0.9-2-2c0-1.11,0.9-2,2-2C58,146.29,58.9,147.18,58.9,148.29z"/>
		</g>
		<g>
			<path class="st5" d="M58.9,138.41c0,1.11-0.9,2-2,2c-1.11,0-2-0.9-2-2s0.9-2,2-2C58,136.41,58.9,137.3,58.9,138.41z"/>
		</g>
		<g>
			<path class="st5" d="M58.9,158.59c0,1.11-0.9,2-2,2c-1.11,0-2-0.9-2-2c0-1.11,0.9-2,2-2C58,156.58,58.9,157.48,58.9,158.59z"/>
		</g>
		<g>
			<path class="st5" d="M58.9,169.29c0,1.11-0.9,2-2,2c-1.11,0-2-0.9-2-2s0.9-2,2-2C58,167.29,58.9,168.18,58.9,169.29z"/>
		</g>
		<g>
			<path class="st1" d="M86.52,217.76H68.33c-1.09,0-1.97-0.88-1.97-1.97l0,0c0-1.09,0.88-1.97,1.97-1.97h18.18
				c1.09,0,1.97,0.88,1.97,1.97l0,0C88.49,216.88,87.61,217.76,86.52,217.76z"/>
		</g>
		<g>
			<path class="st7" d="M86,200.14H67.81c-1.09,0-1.97-0.88-1.97-1.97l0,0c0-1.09,0.88-1.97,1.97-1.97H86
				c1.09,0,1.97,0.88,1.97,1.97l0,0C87.97,199.26,87.09,200.14,86,200.14z"/>
		</g>
		<g>
			<path class="st1" d="M133.79,200.14h-38.3c-1.02,0-1.85-0.88-1.85-1.97l0,0c0-1.09,0.83-1.97,1.85-1.97h38.3
				c1.02,0,1.85,0.88,1.85,1.97l0,0C135.65,199.26,134.82,200.14,133.79,200.14z"/>
		</g>
		<g>
			<path class="st1" d="M106.12,208.77h-38.3c-1.02,0-1.85-0.88-1.85-1.97l0,0c0-1.09,0.83-1.97,1.85-1.97h38.3
				c1.02,0,1.85,0.88,1.85,1.97l0,0C107.98,207.89,107.15,208.77,106.12,208.77z"/>
		</g>
		<g>
			<path class="st5" d="M58.9,198.17c0,1.11-0.9,2-2,2c-1.11,0-2-0.9-2-2s0.9-2,2-2C58,196.17,58.9,197.07,58.9,198.17z"/>
		</g>
		<path class="st5" d="M78.29,140.79H66.91c-0.53,0-0.96-0.43-0.96-0.96v-1.89c0-0.53,0.43-0.96,0.96-0.96h11.38
			c0.53,0,0.96,0.43,0.96,0.96v1.89C79.25,140.36,78.82,140.79,78.29,140.79z"/>
		<g>
			<g>
				<path class="st6" d="M86,241.29H67.81c-1.09,0-1.97-0.88-1.97-1.97l0,0c0-1.09,0.88-1.97,1.97-1.97H86
					c1.09,0,1.97,0.88,1.97,1.97l0,0C87.97,240.41,87.09,241.29,86,241.29z"/>
			</g>
			<g>
				<path class="st5" d="M115.13,241.29H96.94c-1.09,0-1.97-0.88-1.97-1.97l0,0c0-1.09,0.88-1.97,1.97-1.97h18.18
					c1.09,0,1.97,0.88,1.97,1.97l0,0C117.1,240.41,116.22,241.29,115.13,241.29z"/>
			</g>
			<g>
				<path class="st5" d="M58.9,239.32c0,1.11-0.9,2-2,2c-1.11,0-2-0.9-2-2c0-1.11,0.9-2,2-2C58,237.31,58.9,238.21,58.9,239.32z"/>
			</g>
		</g>
		<g>
			<path class="st5" d="M58.9,248.82c0,1.11-0.9,2-2,2c-1.11,0-2-0.9-2-2c0-1.11,0.9-2,2-2C58,246.82,58.9,247.71,58.9,248.82z"/>
		</g>
		<path class="st5" d="M78.29,251.2H66.91c-0.53,0-0.96-0.43-0.96-0.96v-1.89c0-0.53,0.43-0.96,0.96-0.96h11.38
			c0.53,0,0.96,0.43,0.96,0.96v1.89C79.25,250.78,78.82,251.2,78.29,251.2z"/>
	</g>
	<g>
		<g>
			<rect x="148.36" y="242.95" class="st2" width="180.35" height="114.72"/>
			<g>
				<rect x="148.36" y="242.95" class="st4" width="32.48" height="114.72"/>
			</g>
			<g>
				<g>
					<g>
						<g>
							<g>
								<g>
									<g>
										<path class="st1" d="M162.64,255.33c0.17-0.1,0.35-0.18,0.54-0.24l0.11-0.54l0.9-0.02l0.13,0.53
											c0.19,0.05,0.37,0.12,0.55,0.22l0.46-0.3l0.65,0.63l-0.28,0.47c0.1,0.17,0.18,0.35,0.24,0.54l0.54,0.11l0.02,0.9
											l-0.53,0.13c-0.05,0.19-0.12,0.37-0.22,0.55l0.3,0.46l-0.63,0.65l-0.47-0.28c-0.17,0.1-0.35,0.18-0.54,0.23l-0.11,0.54
											l-0.9,0.02l-0.13-0.53c-0.19-0.05-0.37-0.12-0.55-0.22l-0.46,0.3l-0.65-0.63l0.28-0.47c-0.1-0.17-0.18-0.35-0.24-0.54
											l-0.54-0.11l-0.02-0.9l0.53-0.13c0.05-0.19,0.12-0.37,0.22-0.55l-0.3-0.46l0.63-0.65L162.64,255.33L162.64,255.33z
											 M163.12,256.54c-0.37,0.39-0.36,1,0.02,1.37c0.39,0.37,1,0.36,1.37-0.02c0.37-0.39,0.36-1-0.02-1.37
											C164.11,256.14,163.49,256.15,163.12,256.54z"/>
									</g>
								</g>
							</g>
						</g>
					</g>
				</g>
			</g>
			<g>
				<path class="st1" d="M170.14,280.68h-14.16c-0.8,0-1.46-0.65-1.46-1.46l0,0c0-0.8,0.65-1.46,1.46-1.46h14.16
					c0.8,0,1.46,0.65,1.46,1.46l0,0C171.6,280.03,170.95,280.68,170.14,280.68z"/>
			</g>
			<g>
				<path class="st1" d="M170.14,273.27h-14.16c-0.8,0-1.46-0.65-1.46-1.46l0,0c0-0.8,0.65-1.46,1.46-1.46h14.16
					c0.8,0,1.46,0.65,1.46,1.46l0,0C171.6,272.61,170.95,273.27,170.14,273.27z"/>
			</g>
			<g>
				<path class="st1" d="M170.14,266.48h-14.16c-0.8,0-1.46-0.65-1.46-1.46l0,0c0-0.8,0.65-1.46,1.46-1.46h14.16
					c0.8,0,1.46,0.65,1.46,1.46l0,0C171.6,265.83,170.95,266.48,170.14,266.48z"/>
			</g>
			<g>
				<path class="st6" d="M208.19,259.9h-13.41c-0.8,0-1.46-0.65-1.46-1.46l0,0c0-0.8,0.65-1.46,1.46-1.46h13.41
					c0.8,0,1.46,0.65,1.46,1.46l0,0C209.64,259.25,208.99,259.9,208.19,259.9z"/>
			</g>
			<g>
				<path class="st1" d="M208.19,267.52h-13.41c-0.8,0-1.46-0.65-1.46-1.46l0,0c0-0.8,0.65-1.46,1.46-1.46h13.41
					c0.8,0,1.46,0.65,1.46,1.46l0,0C209.64,266.87,208.99,267.52,208.19,267.52z"/>
			</g>
			<g>
				<path class="st7" d="M208.19,275.39h-13.41c-0.8,0-1.46-0.65-1.46-1.46l0,0c0-0.8,0.65-1.46,1.46-1.46h13.41
					c0.8,0,1.46,0.65,1.46,1.46l0,0C209.64,274.74,208.99,275.39,208.19,275.39z"/>
			</g>
			<g>
				<path class="st6" d="M202.47,290.61h-7.69c-0.8,0-1.46-0.65-1.46-1.46l0,0c0-0.8,0.65-1.46,1.46-1.46h7.69
					c0.8,0,1.46,0.65,1.46,1.46l0,0C203.92,289.96,203.27,290.61,202.47,290.61z"/>
			</g>
			<g>
				<path class="st6" d="M202.47,298.5h-7.69c-0.8,0-1.46-0.65-1.46-1.46l0,0c0-0.8,0.65-1.46,1.46-1.46h7.69
					c0.8,0,1.46,0.65,1.46,1.46l0,0C203.92,297.85,203.27,298.5,202.47,298.5z"/>
			</g>
			<g>
				<path class="st1" d="M225.32,298.5h-14.1c-0.8,0-1.46-0.65-1.46-1.46l0,0c0-0.8,0.65-1.46,1.46-1.46h14.1
					c0.8,0,1.46,0.65,1.46,1.46l0,0C226.78,297.85,226.13,298.5,225.32,298.5z"/>
			</g>
			<g>
				<path class="st7" d="M217.35,305.51h-14.1c-0.8,0-1.46-0.65-1.46-1.46l0,0c0-0.8,0.65-1.46,1.46-1.46h14.1
					c0.8,0,1.46,0.65,1.46,1.46l0,0C218.8,304.86,218.15,305.51,217.35,305.51z"/>
			</g>
			<g>
				<path class="st7" d="M220.47,313.52h-9.69c-0.55,0-0.99-0.44-0.99-0.99v-0.92c0-0.55,0.44-0.99,0.99-0.99h9.69
					c0.55,0,0.99,0.44,0.99,0.99v0.92C221.46,313.07,221.02,313.52,220.47,313.52z"/>
			</g>
			<g>
				<path class="st7" d="M220.01,329.2h-8.76c-0.8,0-1.46-0.65-1.46-1.46l0,0c0-0.8,0.65-1.46,1.46-1.46h8.76
					c0.8,0,1.46,0.65,1.46,1.46l0,0C221.46,328.55,220.81,329.2,220.01,329.2z"/>
			</g>
			<g>
				<path class="st7" d="M220.01,345.76h-8.76c-0.8,0-1.46-0.65-1.46-1.46l0,0c0-0.8,0.65-1.46,1.46-1.46h8.76
					c0.8,0,1.46,0.65,1.46,1.46l0,0C221.46,345.11,220.81,345.76,220.01,345.76z"/>
			</g>
			<g>
				<path class="st5" d="M241.55,345.76h-15.36c-0.8,0-1.46-0.65-1.46-1.46l0,0c0-0.8,0.65-1.46,1.46-1.46h15.36
					c0.8,0,1.46,0.65,1.46,1.46l0,0C243,345.11,242.35,345.76,241.55,345.76z"/>
			</g>
			<g>
				<path class="st1" d="M252.3,345.76h-2.21c-0.8,0-1.46-0.65-1.46-1.46l0,0c0-0.8,0.65-1.46,1.46-1.46h2.21
					c0.8,0,1.46,0.65,1.46,1.46l0,0C253.76,345.11,253.1,345.76,252.3,345.76z"/>
			</g>
			<g>
				<path class="st1" d="M240.63,329.2h-12.98c-0.8,0-1.46-0.65-1.46-1.46l0,0c0-0.8,0.65-1.46,1.46-1.46h12.98
					c0.8,0,1.46,0.65,1.46,1.46l0,0C242.08,328.55,241.43,329.2,240.63,329.2z"/>
			</g>
			<g>
				<path class="st1" d="M269.1,336.47h-41.45c-0.8,0-1.46-0.65-1.46-1.46l0,0c0-0.8,0.65-1.46,1.46-1.46h41.45
					c0.8,0,1.45,0.65,1.45,1.46l0,0C270.55,335.82,269.9,336.47,269.1,336.47z"/>
			</g>
			<g>
				<path class="st5" d="M273.88,329.2h-26.46c-0.8,0-1.46-0.65-1.46-1.46l0,0c0-0.8,0.65-1.46,1.46-1.46h26.46
					c0.8,0,1.46,0.65,1.46,1.46l0,0C275.34,328.55,274.69,329.2,273.88,329.2z"/>
			</g>
			<g>
				<path class="st5" d="M238.16,313.52h-11.89c-0.55,0-0.99-0.44-0.99-0.99v-0.92c0-0.55,0.44-0.99,0.99-0.99h11.89
					c0.55,0,0.99,0.44,0.99,0.99v0.92C239.15,313.07,238.7,313.52,238.16,313.52z"/>
			</g>
			<g>
				<path class="st1" d="M247.65,313.52H244c-0.55,0-0.99-0.44-0.99-0.99v-0.92c0-0.55,0.44-0.99,0.99-0.99h3.65
					c0.55,0,0.99,0.44,0.99,0.99v0.92C248.64,313.07,248.19,313.52,247.65,313.52z"/>
			</g>
			<g>
				<path class="st1" d="M268.55,313.52h-14.63c-0.55,0-0.99-0.44-0.99-0.99v-0.92c0-0.55,0.44-0.99,0.99-0.99h14.63
					c0.55,0,0.99,0.44,0.99,0.99v0.92C269.54,313.07,269.1,313.52,268.55,313.52z"/>
			</g>
			<g>
				<path class="st6" d="M226.9,305.51h-3.14c-0.8,0-1.46-0.65-1.46-1.46l0,0c0-0.8,0.65-1.46,1.46-1.46h3.14
					c0.8,0,1.46,0.65,1.46,1.46l0,0C228.35,304.86,227.7,305.51,226.9,305.51z"/>
			</g>
			<g>
				<path class="st1" d="M253.52,305.51h-20.01c-0.8,0-1.46-0.65-1.46-1.46l0,0c0-0.8,0.65-1.46,1.46-1.46h20.01
					c0.8,0,1.46,0.65,1.46,1.46l0,0C254.98,304.86,254.32,305.51,253.52,305.51z"/>
			</g>
			<g>
				<path class="st5" d="M229.67,259.9h-13.41c-0.8,0-1.46-0.65-1.46-1.46l0,0c0-0.8,0.65-1.46,1.46-1.46h13.41
					c0.8,0,1.46,0.65,1.46,1.46l0,0C231.13,259.25,230.48,259.9,229.67,259.9z"/>
			</g>
			<g>
				<path class="st6" d="M246.95,267.52h-30.69c-0.8,0-1.46-0.65-1.46-1.46l0,0c0-0.8,0.65-1.46,1.46-1.46h30.69
					c0.8,0,1.46,0.65,1.46,1.46l0,0C248.41,266.87,247.76,267.52,246.95,267.52z"/>
			</g>
			<g>
				<path class="st1" d="M280,275.39h-63.74c-0.8,0-1.46-0.65-1.46-1.46l0,0c0-0.8,0.65-1.46,1.46-1.46H280
					c0.8,0,1.46,0.65,1.46,1.46l0,0C281.45,274.74,280.8,275.39,280,275.39z"/>
			</g>
			<g>
				<path class="st1" d="M246.31,280.94h-30.05c-0.8,0-1.46-0.65-1.46-1.46l0,0c0-0.8,0.65-1.46,1.46-1.46h30.05
					c0.8,0,1.46,0.65,1.46,1.46l0,0C247.77,280.28,247.12,280.94,246.31,280.94z"/>
			</g>
			<g>
				<path class="st5" d="M240.17,290.61h-30.05c-0.8,0-1.46-0.65-1.46-1.46l0,0c0-0.8,0.65-1.46,1.46-1.46h30.05
					c0.8,0,1.46,0.65,1.46,1.46l0,0C241.62,289.96,240.97,290.61,240.17,290.61z"/>
			</g>
			<g>
				<path class="st7" d="M256.99,290.61h-10.07c-0.8,0-1.46-0.65-1.46-1.46l0,0c0-0.8,0.65-1.46,1.46-1.46h10.07
					c0.8,0,1.46,0.65,1.46,1.46l0,0C258.45,289.96,257.79,290.61,256.99,290.61z"/>
			</g>
			<g>
				<path class="st6" d="M282.75,290.56h-19.03c-0.8,0-1.46-0.65-1.46-1.46l0,0c0-0.8,0.65-1.46,1.46-1.46h19.03
					c0.8,0,1.46,0.65,1.46,1.46l0,0C284.2,289.91,283.55,290.56,282.75,290.56z"/>
			</g>
			<g>
				<path class="st1" d="M308.64,290.56h-19.03c-0.8,0-1.46-0.65-1.46-1.46l0,0c0-0.8,0.65-1.46,1.46-1.46h19.03
					c0.8,0,1.46,0.65,1.46,1.46l0,0C310.1,289.91,309.45,290.56,308.64,290.56z"/>
			</g>
			<g>
				<path class="st1" d="M164.01,288.53h-8.03c-0.8,0-1.46-0.65-1.46-1.46l0,0c0-0.8,0.65-1.46,1.46-1.46h8.03
					c0.8,0,1.46,0.65,1.46,1.46l0,0C165.46,287.87,164.81,288.53,164.01,288.53z"/>
			</g>
			<g>
				<path class="st1" d="M161.61,312.07h-5.62c-0.8,0-1.46-0.65-1.46-1.46l0,0c0-0.8,0.65-1.46,1.46-1.46h5.62
					c0.8,0,1.46,0.65,1.46,1.46l0,0C163.06,311.42,162.41,312.07,161.61,312.07z"/>
			</g>
			<g>
				<path class="st1" d="M171.6,296.37h-15.61c-0.8,0-1.46-0.65-1.46-1.46l0,0c0-0.8,0.65-1.46,1.46-1.46h15.61
					c0.8,0,1.46,0.65,1.46,1.46l0,0C173.05,295.72,172.4,296.37,171.6,296.37z"/>
			</g>
			<g>
				<path class="st1" d="M168.86,304.22h-12.88c-0.8,0-1.46-0.65-1.46-1.46l0,0c0-0.8,0.65-1.46,1.46-1.46h12.88
					c0.8,0,1.46,0.65,1.46,1.46l0,0C170.31,303.57,169.66,304.22,168.86,304.22z"/>
			</g>
			<g>
				<path class="st5" d="M188.2,258.45c0,0.82-0.66,1.48-1.48,1.48c-0.82,0-1.48-0.66-1.48-1.48c0-0.82,0.66-1.48,1.48-1.48
					C187.54,256.97,188.2,257.63,188.2,258.45z"/>
			</g>
			<g>
				<circle class="st5" cx="186.72" cy="250.68" r="1.48"/>
			</g>
			<g>
				<circle class="st5" cx="186.72" cy="266.04" r="1.48"/>
			</g>
			<g>
				<circle class="st5" cx="186.72" cy="273.94" r="1.48"/>
			</g>
			<g>
				<circle class="st5" cx="186.72" cy="281.83" r="1.48"/>
			</g>
			<g>
				<path class="st5" d="M188.2,289.72c0,0.82-0.66,1.48-1.48,1.48c-0.82,0-1.48-0.66-1.48-1.48c0-0.82,0.66-1.48,1.48-1.48
					C187.54,288.25,188.2,288.91,188.2,289.72z"/>
			</g>
			<g>
				<circle class="st5" cx="186.72" cy="297.62" r="1.48"/>
			</g>
			<g>
				<circle class="st5" cx="186.72" cy="305.51" r="1.48"/>
			</g>
			<g>
				<path class="st5" d="M188.2,313.41c0,0.82-0.66,1.48-1.48,1.48c-0.82,0-1.48-0.66-1.48-1.48c0-0.82,0.66-1.48,1.48-1.48
					C187.54,311.93,188.2,312.59,188.2,313.41z"/>
			</g>
			<g>
				<path class="st5" d="M188.2,321.3c0,0.82-0.66,1.48-1.48,1.48c-0.82,0-1.48-0.66-1.48-1.48c0-0.82,0.66-1.48,1.48-1.48
					C187.54,319.82,188.2,320.49,188.2,321.3z"/>
			</g>
			<g>
				<circle class="st5" cx="186.72" cy="329.2" r="1.48"/>
			</g>
			<g>
				<path class="st5" d="M188.2,337.09c0,0.82-0.66,1.48-1.48,1.48c-0.82,0-1.48-0.66-1.48-1.48c0-0.82,0.66-1.48,1.48-1.48
					C187.54,335.61,188.2,336.28,188.2,337.09z"/>
			</g>
			<g>
				<circle class="st5" cx="186.72" cy="344.99" r="1.48"/>
			</g>
			<path class="st1" d="M324.88,227.31H153.77c-2.98,0-5.4,2.42-5.4,5.4v10.24h180.35v-11.81
				C328.71,229.03,327,227.31,324.88,227.31z"/>
			<g>
				<circle class="st2" cx="157.68" cy="235.61" r="2.15"/>
				<path class="st2" d="M166.44,235.61c0,1.19-0.96,2.15-2.15,2.15c-1.19,0-2.15-0.96-2.15-2.15s0.96-2.15,2.15-2.15
					C165.48,233.46,166.44,234.42,166.44,235.61z"/>
				<path class="st2" d="M173.05,235.61c0,1.19-0.96,2.15-2.15,2.15c-1.19,0-2.15-0.96-2.15-2.15s0.96-2.15,2.15-2.15
					C172.09,233.46,173.05,234.42,173.05,235.61z"/>
			</g>
		</g>
		<polygon class="st2" points="186.72,355.89 201.97,372.36 215.8,355.89 		"/>
		<g>
			<path class="st6" d="M323.82,357.68c-0.01-0.04,0.57,0.05,1.58-0.29c0.5-0.17,1.1-0.48,1.68-1.01c0.58-0.52,1.13-1.3,1.4-2.3
				c0.15-0.5,0.18-1.04,0.17-1.63c0-0.58,0-1.2-0.01-1.84c0-1.29-0.01-2.69-0.01-4.22c-0.01-3.05-0.02-6.57-0.02-10.53
				c-0.02-15.85-0.05-38.77-0.08-67.1c-0.01-7.08-0.01-14.5-0.02-22.23c0-3.87-0.01-7.81-0.01-11.83c-0.01-0.99,0.03-2.04-0.03-3
				c-0.11-0.96-0.51-1.9-1.18-2.62c-0.65-0.74-1.55-1.24-2.51-1.45c-0.95-0.17-2.03-0.07-3.06-0.1
				c-16.66,0.01-34.45,0.02-53.18,0.02c-18.73,0-38.39,0.01-58.76,0.02c-10.19,0-20.56,0-31.08,0c-5.26,0-10.56,0-15.9,0
				c-2.67,0-5.34,0-8.03,0c-0.66,0.01-1.37-0.02-1.99,0.02c-0.63,0.06-1.25,0.26-1.81,0.58c-1.11,0.63-1.94,1.73-2.23,2.98
				c-0.21,0.85-0.1,1.82-0.12,2.75v2.82c0,1.88,0,3.75,0,5.62c0,3.74,0,7.46,0,11.16c0,7.4,0,14.74,0,21.99
				c0,14.5-0.01,28.67-0.01,42.44c0,6.88,0,13.67-0.01,20.34c0,3.34,0,6.64,0,9.92c0.01,1.63-0.02,3.29,0.01,4.88
				c0.07,1.55,1,3,2.34,3.76c0.66,0.39,1.42,0.58,2.18,0.61c0.8,0,1.6,0,2.39,0.01c1.59,0,3.18,0,4.76,0c3.16,0,6.28,0,9.38,0
				c6.19,0,12.24,0.01,18.16,0.01l0.1,0l0.07,0.07c4.8,5.05,9.45,9.95,13.96,14.7l-0.31,0.01c4.28-5.09,8.39-9.97,12.34-14.68
				l0.06-0.07h0.09c33.76,0.04,61.18,0.07,80.17,0.09c9.49,0.02,16.87,0.04,21.88,0.05c2.5,0.01,4.41,0.02,5.7,0.03
				C323.16,357.66,323.82,357.68,323.82,357.68s-0.66,0.02-1.94,0.03c-1.29,0.01-3.2,0.02-5.7,0.03c-5.02,0.01-12.4,0.03-21.88,0.05
				c-18.99,0.02-46.41,0.05-80.17,0.09l0.15-0.07c-3.95,4.71-8.05,9.6-12.33,14.7l-0.15,0.18l-0.16-0.17
				c-4.52-4.74-9.18-9.64-13.98-14.68l0.16,0.07c-5.91,0-11.97,0.01-18.16,0.01c-3.09,0-6.22,0-9.38,0c-1.58,0-3.17,0-4.76,0
				c-0.8,0-1.6,0-2.4-0.01c-0.84-0.03-1.68-0.24-2.41-0.67c-1.47-0.83-2.5-2.43-2.58-4.14c-0.03-1.65-0.01-3.26-0.02-4.91
				c0-3.28,0-6.59,0-9.92c0-6.67,0-13.45-0.01-20.34c0-13.77,0-27.94-0.01-42.44c0-7.25,0-14.58,0-21.99c0-3.7,0-7.42,0-11.16
				c0-1.87,0-3.74,0-5.62v-2.82v-1.41c-0.01-0.46,0.02-0.98,0.14-1.46c0.32-1.39,1.24-2.62,2.48-3.31c0.62-0.35,1.31-0.57,2.01-0.64
				c0.72-0.05,1.36-0.01,2.04-0.03c2.68,0,5.36,0,8.03,0c5.34,0,10.64,0,15.9,0c10.52,0,20.89,0,31.08,0
				c20.38,0.01,40.04,0.01,58.76,0.02c18.73,0.01,36.52,0.02,53.18,0.02c1.04,0.03,2.06-0.08,3.15,0.11
				c1.05,0.23,2.03,0.78,2.74,1.59c0.72,0.79,1.16,1.81,1.28,2.86c0.06,1.06,0.02,2.03,0.03,3.05c0,4.02-0.01,7.96-0.01,11.83
				c-0.01,7.73-0.01,15.15-0.02,22.23c-0.03,28.32-0.06,51.25-0.08,67.1c-0.01,3.96-0.02,7.48-0.02,10.53
				c0,1.52-0.01,2.93-0.01,4.22c0,0.64,0,1.26-0.01,1.84c0.01,0.58-0.03,1.15-0.19,1.65c-0.29,1.02-0.85,1.8-1.45,2.33
				c-0.59,0.54-1.21,0.84-1.72,1c-0.51,0.17-0.92,0.22-1.19,0.24C323.96,357.68,323.82,357.68,323.82,357.68z"/>
		</g>
	</g>
	<g>
		<path class="st2" d="M298.15,203.98H162.53c-1.75,0-3.17-1.42-3.17-3.17v-69.15c0-1.75,1.42-3.17,3.17-3.17h136.25
			c1.75,0,3.17,1.42,3.17,3.17v68.53C301.94,202.28,300.24,203.98,298.15,203.98z"/>
		<path class="st1" d="M301.94,144.7H159.36v-12.74c0-1.92,1.55-3.47,3.47-3.47h135.64c1.92,0,3.47,1.55,3.47,3.47V144.7z"/>
		<g>
			<path class="st6" d="M297.93,203.98c0-0.02,0.38,0.01,1.09-0.18c0.68-0.2,1.75-0.73,2.42-2c0.34-0.63,0.49-1.42,0.44-2.3
				c0-0.88-0.01-1.85-0.01-2.9c-0.01-2.09-0.01-4.51-0.02-7.23c-0.02-10.89-0.05-26.62-0.08-46.06c0-2.43-0.01-4.92-0.01-7.46
				c0-1.27,0-2.56,0-3.86c0.11-1.26-0.58-2.5-1.73-3.03c-0.57-0.28-1.19-0.29-1.87-0.28c-0.67,0-1.34,0-2.02,0c-1.35,0-2.72,0-4.1,0
				c-2.76,0-5.57,0-8.43,0.01c-11.43,0.01-23.65,0.02-36.5,0.02c-25.71,0.01-53.97,0.01-83.64,0.02c-0.48,0-0.91-0.01-1.32,0.09
				c-0.42,0.1-0.81,0.28-1.16,0.53c-0.7,0.5-1.18,1.28-1.31,2.13c-0.07,0.41-0.04,0.88-0.05,1.34v1.38l0,2.75c0,3.66,0,7.3,0,10.92
				c0,7.23,0,14.35,0,21.34c0,7,0,13.87-0.01,20.6c0,3.37,0,6.69,0,9.99c-0.07,1.57,0.91,3.09,2.35,3.64
				c0.71,0.31,1.48,0.28,2.3,0.28c0.81,0,1.61,0,2.42,0c25.71,0.02,48.86,0.04,68.31,0.06c19.44,0.03,35.17,0.06,46.05,0.08
				c5.43,0.02,9.65,0.04,12.52,0.05c1.42,0.01,2.51,0.02,3.26,0.03C297.55,203.96,297.93,203.98,297.93,203.98s-0.38,0.02-1.11,0.03
				c-0.74,0.01-1.83,0.01-3.26,0.03c-2.87,0.01-7.09,0.03-12.52,0.05c-10.88,0.02-26.62,0.05-46.05,0.08
				c-19.45,0.02-42.6,0.03-68.31,0.06c-0.8,0-1.61,0-2.42,0c-0.78,0.01-1.68,0.04-2.49-0.31c-1.63-0.62-2.74-2.36-2.66-4.09
				c0-3.29,0-6.62,0-9.99c0-6.73,0-13.6-0.01-20.6c0-7,0-14.12,0-21.34c0-3.61,0-7.25,0-10.92l0-2.75l0-1.38
				c0.01-0.46-0.03-0.92,0.05-1.42c0.15-0.98,0.71-1.89,1.52-2.47c0.4-0.29,0.86-0.5,1.35-0.62c0.49-0.12,0.99-0.1,1.44-0.11
				c29.67,0.01,57.93,0.01,83.64,0.02c12.85,0.01,25.07,0.02,36.5,0.02c2.86,0,5.67,0,8.43,0.01c1.38,0,2.75,0,4.1,0
				c0.68,0,1.35,0,2.02,0c0.65-0.02,1.41,0,2.04,0.32c1.3,0.58,2.09,2.05,1.96,3.39c0,1.3,0,2.59,0,3.86c0,2.54-0.01,5.03-0.01,7.46
				c-0.03,19.44-0.06,35.17-0.08,46.06c-0.01,2.72-0.02,5.13-0.02,7.23c0,1.05-0.01,2.01-0.01,2.9c0,0.44,0,0.87-0.09,1.27
				c-0.09,0.4-0.22,0.76-0.39,1.08c-0.71,1.29-1.8,1.81-2.5,2C298.31,204.03,297.93,203.98,297.93,203.98z"/>
		</g>
		<g>
			<circle class="st2" cx="169.97" cy="137.86" r="2.66"/>
			<path class="st2" d="M180.79,137.86c0,1.47-1.19,2.66-2.66,2.66s-2.66-1.19-2.66-2.66s1.19-2.66,2.66-2.66
				S180.79,136.39,180.79,137.86z"/>
			<circle class="st2" cx="186.31" cy="137.86" r="2.66"/>
		</g>
		<g>
			<g>
				<path class="st6" d="M200.44,167.54h-16.58c-0.99,0-1.8-0.81-1.8-1.8l0,0c0-0.99,0.81-1.8,1.8-1.8h16.58
					c0.99,0,1.8,0.81,1.8,1.8l0,0C202.24,166.74,201.43,167.54,200.44,167.54z"/>
			</g>
			<g>
				<path class="st1" d="M200.44,176.96h-16.58c-0.99,0-1.8-0.81-1.8-1.8l0,0c0-0.99,0.81-1.8,1.8-1.8h16.58
					c0.99,0,1.8,0.81,1.8,1.8l0,0C202.24,176.15,201.43,176.96,200.44,176.96z"/>
			</g>
			<g>
				<path class="st1" d="M287.94,167.54h-48.08c-0.99,0-1.8-0.81-1.8-1.8l0,0c0-0.99,0.81-1.8,1.8-1.8h48.08
					c0.99,0,1.8,0.81,1.8,1.8l0,0C289.74,166.74,288.93,167.54,287.94,167.54z"/>
			</g>
			<g>
				<path class="st7" d="M200.44,186.69h-16.58c-0.99,0-1.8-0.81-1.8-1.8l0,0c0-0.99,0.81-1.8,1.8-1.8h16.58
					c0.99,0,1.8,0.81,1.8,1.8l0,0C202.24,185.88,201.43,186.69,200.44,186.69z"/>
			</g>
			<g>
				<path class="st7" d="M276.47,176.96h-16.58c-0.99,0-1.8-0.81-1.8-1.8l0,0c0-0.99,0.81-1.8,1.8-1.8h16.58
					c0.99,0,1.8,0.81,1.8,1.8l0,0C278.27,176.15,277.46,176.96,276.47,176.96z"/>
			</g>
			<g>
				<path class="st5" d="M227,167.54h-16.58c-0.99,0-1.8-0.81-1.8-1.8l0,0c0-0.99,0.81-1.8,1.8-1.8H227c0.99,0,1.8,0.81,1.8,1.8l0,0
					C228.79,166.74,227.99,167.54,227,167.54z"/>
			</g>
			<g>
				<path class="st6" d="M248.35,176.96h-37.93c-0.99,0-1.8-0.81-1.8-1.8l0,0c0-0.99,0.81-1.8,1.8-1.8h37.93
					c0.99,0,1.8,0.81,1.8,1.8l0,0C250.15,176.15,249.35,176.96,248.35,176.96z"/>
			</g>
			<g>
				<path class="st1" d="M285.56,186.69h-75.22c-0.95,0-1.72-0.81-1.72-1.8l0,0c0-0.99,0.77-1.8,1.72-1.8h75.22
					c0.95,0,1.72,0.81,1.72,1.8l0,0C287.27,185.88,286.51,186.69,285.56,186.69z"/>
			</g>
			<g>
				<path class="st1" d="M247.56,193.54h-37.14c-0.99,0-1.8-0.81-1.8-1.8l0,0c0-0.99,0.81-1.8,1.8-1.8h37.14
					c0.99,0,1.8,0.81,1.8,1.8l0,0C249.36,192.73,248.56,193.54,247.56,193.54z"/>
			</g>
			<g>
				<path class="st5" d="M175.74,165.75c0,1.01-0.82,1.83-1.83,1.83c-1.01,0-1.83-0.82-1.83-1.83c0-1.01,0.82-1.83,1.83-1.83
					C174.92,163.92,175.74,164.74,175.74,165.75z"/>
			</g>
			<g>
				<path class="st5" d="M175.74,156.74c0,1.01-0.82,1.83-1.83,1.83c-1.01,0-1.83-0.82-1.83-1.83s0.82-1.83,1.83-1.83
					C174.92,154.91,175.74,155.73,175.74,156.74z"/>
			</g>
			<g>
				<circle class="st5" cx="173.91" cy="175.13" r="1.83"/>
			</g>
			<g>
				<circle class="st5" cx="173.91" cy="184.89" r="1.83"/>
			</g>
		</g>
		<path class="st5" d="M193.61,158.05H183.4c-0.53,0-0.96-0.43-0.96-0.96v-1.55c0-0.53,0.43-0.96,0.96-0.96h10.21
			c0.53,0,0.96,0.43,0.96,0.96v1.55C194.57,157.62,194.14,158.05,193.61,158.05z"/>
	</g>
</g>
<g id="Coffee">
	<g>
		<g>
			<g>
				<g>
					<path class="st9" d="M89.53,439.01c-8.34,3.63-16.38,3.97-24.02,0l-5.58-46.73h34.65L89.53,439.01z"/>
				</g>
				<g>
					<g>
						<g>
							<g>
								<path class="st1" d="M92.3,389.57l-1.04-3.34l-26.1-3.19c-0.71-0.09-1.39,0.34-1.62,1.01l-1.9,5.51H58.3v6.05
									c13.11,2.31,25.66,2.45,37.54,0l0-6.05H92.3z"/>
								<g>
									<path class="st6" d="M92.3,389.57c0.01-0.01,0.09-0.01,0.24-0.02c0.19-0.01,0.41-0.01,0.69-0.02
										c0.64-0.01,1.51-0.03,2.61-0.05l0.1,0l0,0.1c0.01,1.56,0.03,3.6,0.06,6.05l0,0.13l-0.13,0.03
										c-4.16,0.87-9.68,1.71-16.11,1.84c-6.43,0.15-13.74-0.38-21.36-1.71l-0.14-0.02l-0.22-0.04l0-0.22c0-2.05,0-4.08,0-6.05
										l0-0.26l0.26,0c1.13,0,2.24,0,3.34,0l-0.24,0.17c0.64-1.85,1.26-3.65,1.87-5.4c0.13-0.49,0.52-0.96,1.01-1.15
										c0.24-0.1,0.51-0.15,0.77-0.14c0.26,0.02,0.46,0.05,0.69,0.08c0.89,0.11,1.77,0.22,2.64,0.33
										c3.45,0.43,6.67,0.84,9.59,1.21c5.77,0.75,10.36,1.34,13.3,1.73l0.06,0.01l0.02,0.06c0.31,1.05,0.54,1.87,0.72,2.48
										c0.07,0.26,0.13,0.48,0.18,0.65C92.29,389.48,92.3,389.56,92.3,389.57c-0.01,0.01-0.03-0.06-0.08-0.2
										c-0.06-0.17-0.13-0.37-0.22-0.62c-0.2-0.6-0.48-1.43-0.83-2.49l0.08,0.07c-2.95-0.34-7.54-0.86-13.32-1.52
										c-2.92-0.35-6.14-0.73-9.6-1.14c-0.87-0.1-1.75-0.21-2.64-0.32c-0.47-0.05-0.87-0.14-1.22,0.03
										c-0.36,0.16-0.62,0.45-0.74,0.86c-0.6,1.76-1.22,3.56-1.85,5.41l-0.06,0.17l-0.18,0c-1.09,0-2.21,0-3.34,0l0.26-0.26
										c0,1.97,0,3.99,0,6.05l-0.22-0.26l0.14,0.02c7.59,1.33,14.86,1.88,21.26,1.76c6.4-0.1,11.91-0.88,16.06-1.68l-0.12,0.15
										c0.02-2.45,0.04-4.49,0.06-6.05l0.1,0.1c-1.13-0.02-2.01-0.04-2.66-0.05c-0.27-0.01-0.49-0.02-0.67-0.02
										C92.37,389.58,92.29,389.57,92.3,389.57z"/>
								</g>
							</g>
						</g>
					</g>
				</g>
				<g>
					<path class="st10" d="M91.98,423.52c-9.05,1.46-19.05,1.25-29.63,0l-1.44-14.17c11.16,1.2,22.11,1.25,32.82,0L91.98,423.52z"/>
				</g>
				<g>
					<g>
						<path class="st9" d="M75.31,413.9c-1.35,0.82-1.9,2.55-1.22,4.02l0.94,2.03c0.68,1.47,2.36,2.16,3.86,1.66L75.31,413.9z"/>
					</g>
					<g>
						<path class="st9" d="M75.94,413.61l3.58,7.7c1.36-0.82,1.9-2.55,1.22-4.02l-0.94-2.03C79.11,413.8,77.44,413.1,75.94,413.61z"
							/>
					</g>
				</g>
			</g>
		</g>
		<g>
			<path class="st6" d="M92.59,389.66c0.01,0.04-0.41,0.16-1.18,0.36c-0.77,0.2-1.89,0.44-3.29,0.69c-2.79,0.5-6.7,0.95-11.03,0.94
				c-4.34-0.01-8.24-0.48-11.03-0.99c-1.39-0.25-2.52-0.5-3.28-0.7c-0.77-0.2-1.19-0.33-1.18-0.36c0.01-0.04,0.44,0.02,1.22,0.16
				c0.78,0.14,1.9,0.33,3.3,0.54c2.79,0.42,6.67,0.82,10.97,0.83c4.3,0,8.18-0.38,10.97-0.78c1.4-0.2,2.52-0.38,3.3-0.53
				C92.15,389.68,92.59,389.62,92.59,389.66z"/>
		</g>
	</g>
</g>
<g id="Device">
	<g>
		<path class="st1" d="M110.4,320.16c0,0-5.71,1.23-6.7,5.28s7.95,101,8.31,103.36c0.56,3.71,3.69,8.42,10.74,8.17
			c6.14-0.22,89.85-0.03,110.93,0.02c2.8,0.01,4.48-2.38,4.85-5.22l0,0l-103.64-6.12L110.4,320.16z"/>
		<g>
			<path class="st1" d="M107.8,323.4l8.98,104.55c0.17,1.71,1.6,3.02,3.31,3.04l118.44,0.53l-22.75-22.58l-76.94-0.54l-8.23-81.91
				c-0.11-1.09-0.91-1.98-1.97-2.23l-17.24-4.02C109.44,319.79,107.61,321.39,107.8,323.4z"/>
			<g>
				<path class="st6" d="M107.8,323.4c0,0-0.03-0.17-0.02-0.5c0.01-0.33,0.1-0.85,0.46-1.41c0.35-0.55,1.03-1.16,2.01-1.33
					c0.49-0.1,1.04-0.01,1.57,0.13c0.55,0.13,1.13,0.26,1.75,0.4c2.49,0.57,5.55,1.27,9.15,2.1c1.8,0.42,3.74,0.86,5.8,1.34
					c1.08,0.18,2.07,1.14,2.19,2.33c0.12,1.12,0.23,2.27,0.36,3.46c1.93,18.94,4.68,46,7.98,78.47l-0.22-0.2
					c23.09,0.15,49.14,0.33,76.94,0.51l0.1,0l0.07,0.07c7.29,7.23,14.95,14.84,22.76,22.58l0.45,0.45l-0.64,0
					c-1.66-0.01-3.45-0.02-5.25-0.02c-30.8-0.15-60.14-0.28-86.83-0.41c-6.67-0.03-13.18-0.07-19.5-0.1
					c-1.58-0.01-3.15-0.02-4.71-0.02c-0.78-0.01-1.54,0-2.34-0.02c-0.82-0.05-1.62-0.39-2.22-0.95c-0.6-0.55-1-1.32-1.11-2.12
					c-0.09-0.78-0.13-1.52-0.2-2.27c-0.13-1.5-0.25-2.99-0.38-4.47c-1-11.82-1.94-22.84-2.79-32.89
					c-1.69-20.1-3.06-36.37-4.01-47.63c-0.46-5.62-0.82-9.98-1.06-12.95c-0.12-1.47-0.2-2.6-0.26-3.37
					C107.82,323.79,107.8,323.4,107.8,323.4s0.05,0.39,0.12,1.14c0.07,0.77,0.18,1.89,0.31,3.36c0.27,2.97,0.66,7.33,1.16,12.94
					c0.99,11.25,2.41,27.52,4.17,47.61c0.87,10.05,1.83,21.06,2.86,32.89c0.13,1.48,0.26,2.97,0.39,4.47
					c0.07,0.75,0.12,1.52,0.2,2.25c0.1,0.7,0.45,1.37,0.98,1.86c0.53,0.49,1.22,0.79,1.94,0.83c0.75,0.02,1.54,0.01,2.31,0.02
					c1.56,0.01,3.13,0.01,4.71,0.02c6.32,0.02,12.83,0.05,19.5,0.08c26.69,0.11,56.03,0.24,86.83,0.37c1.8,0.01,3.59,0.02,5.25,0.02
					l-0.18,0.45c-7.8-7.74-15.46-15.35-22.75-22.58l0.18,0.07c-27.81-0.21-53.85-0.4-76.94-0.58l-0.2,0l-0.02-0.2
					c-3.22-32.48-5.91-59.54-7.79-78.49c-0.12-1.18-0.23-2.33-0.34-3.45c-0.11-1.08-0.99-1.96-2-2.13
					c-2.06-0.49-3.99-0.94-5.79-1.37c-3.59-0.85-6.65-1.57-9.13-2.16c-0.62-0.15-1.2-0.29-1.75-0.42c-0.55-0.15-1.05-0.23-1.53-0.14
					c-0.95,0.15-1.62,0.73-1.97,1.26c-0.36,0.54-0.46,1.05-0.48,1.38C107.79,323.23,107.82,323.4,107.8,323.4z"/>
			</g>
		</g>
		<polygon class="st6" points="194.5,428.8 205.51,428.8 191.59,410.75 185.06,410.75 		"/>
		<path class="st6" d="M111.87,328.12l8.41,90.84l15.67-12.46l-6.74-76.53c-0.05-0.61-0.52-1.11-1.14-1.2l-14.68-2.1
			C112.53,326.55,111.79,327.26,111.87,328.12z"/>
		<polygon class="st6" points="128.7,428.8 140.06,428.8 151.61,410.75 145.07,410.75 		"/>
		<polygon class="st6" points="142.65,428.8 153.66,428.8 159.69,410.75 153.15,410.75 		"/>
		<polygon class="st6" points="156.12,428.8 167.13,428.8 167.72,410.75 161.19,410.75 		"/>
		<polygon class="st6" points="168.62,428.8 179.63,428.8 175.56,410.75 169.03,410.75 		"/>
		<polygon class="st6" points="181.64,428.8 192.65,428.8 183.68,410.75 177.15,410.75 		"/>
		<g>
			<path class="st1" d="M204.96,425.28c0,0.09-16.79,0.16-37.49,0.16c-20.71,0-37.5-0.07-37.5-0.16c0-0.09,16.79-0.16,37.5-0.16
				C188.17,425.13,204.96,425.2,204.96,425.28z"/>
		</g>
		<g>
			<path class="st1" d="M202.96,421.97c0,0.09-15.94,0.16-35.61,0.16c-19.67,0-35.61-0.07-35.61-0.16c0-0.09,15.94-0.16,35.61-0.16
				C187.02,421.82,202.96,421.89,202.96,421.97z"/>
		</g>
		<g>
			<path class="st1" d="M202.96,418.97c0,0.17-15,0.31-33.51,0.31c-18.51,0-33.51-0.14-33.51-0.31c0-0.17,15-0.31,33.51-0.31
				C187.96,418.66,202.96,418.8,202.96,418.97z"/>
		</g>
		<g>
			<path class="st1" d="M203.42,416.23c0,0.17-14.68,0.31-32.78,0.31c-18.11,0-32.79-0.14-32.79-0.31s14.68-0.31,32.79-0.31
				C188.74,415.91,203.42,416.05,203.42,416.23z"/>
		</g>
		<g>
			<path class="st1" d="M204.96,414.23c0,0.17-14.78,0.31-33,0.31c-18.23,0-33-0.14-33-0.31c0-0.17,14.77-0.31,33-0.31
				C190.18,413.91,204.96,414.05,204.96,414.23z"/>
		</g>
		<g>
			<path class="st1" d="M206.58,412.13c0,0.17-15.05,0.31-33.62,0.31c-18.57,0-33.62-0.14-33.62-0.31c0-0.17,15.05-0.31,33.62-0.31
				C191.53,411.82,206.58,411.96,206.58,412.13z"/>
		</g>
		<g>
			<path class="st1" d="M118.44,427.94c6.84-6.4,13.68-12.8,20.52-19.2"/>
			<g>
				<path class="st6" d="M138.96,408.75c0.1,0.1-4.42,4.49-10.08,9.79c-5.67,5.3-10.34,9.51-10.44,9.41
					c-0.1-0.1,4.41-4.49,10.08-9.79C134.19,412.85,138.86,408.64,138.96,408.75z"/>
			</g>
		</g>
	</g>
</g>
<g id="Character_00000013195450124111778170000016365773003215084703_">
	<g>
		<g>
			<path class="st5" d="M478.51,337.24c0,0-1.01-10.61-27.46-17.41c-12.77-3.28-43.26-4.86-46.71,14.96
				c-0.11,0.64-15.17,125.27-15.17,125.27h56.36L478.51,337.24z"/>
			<path class="st5" d="M469.58,460.06h-26l8.68-122.11c0.64-5.94,6.79-10.23,13.74-9.57l2.33,0.22
				c6.95,0.66,11.35,7.35,11.15,14.98L469.58,460.06z"/>
			<g>
				<path class="st6" d="M445.53,455.67c-0.14-0.01,1.69-24.06,4.1-53.72c2.41-29.66,4.48-53.69,4.62-53.68
					c0.14,0.01-1.69,24.06-4.1,53.72C447.74,431.65,445.67,455.68,445.53,455.67z"/>
			</g>
			<g>
				<path class="st6" d="M473.52,331.47c-0.04,0.1-1.35-0.57-3.65-0.86c-2.27-0.3-5.61-0.06-8.67,1.69
					c-3.06,1.76-4.95,4.53-5.84,6.64c-0.91,2.13-1,3.61-1.1,3.59c-0.03,0-0.03-0.37,0.05-1.02c0.08-0.65,0.29-1.6,0.71-2.7
					c0.81-2.2,2.73-5.11,5.92-6.95c3.2-1.83,6.67-2.01,8.98-1.6c1.17,0.2,2.09,0.49,2.69,0.75
					C473.22,331.26,473.53,331.44,473.52,331.47z"/>
			</g>
		</g>
		<g>
			<g>
				<g>
					<g>
						<g>
							<g>
								<g>
									<path class="st6" d="M391.41,178.81c0.26-7.15-4.58-8.11-8.31-7.29c-4.53-3.33-11.41-2.96-15.55,0.85
										c-3.4-1.85-7.76-1.78-11.09,0.18c-3.33,1.96-5.51,5.75-5.54,9.61c-3.89-0.48-7.96,1.76-9.64,5.3
										c-1.68,3.54-0.83,8.11,2,10.82c-4.16,1.52-6.75,6.42-5.66,10.71c1.09,4.29,5.71,7.36,10.09,6.71l43.86-29.21
										C394.19,183.73,391.27,182.63,391.41,178.81z"/>
								</g>
							</g>
						</g>
					</g>
				</g>
				<g>
					<g>
						<g>
							<g>
								<g>
									<g>
										<g>
											<g>
												<g>
													<path class="st10" d="M346.43,217.02c0.9-19.96,16.97-35.88,36.93-36.59l1.98-0.07c21.43,0.49,32.99,18.97,31.91,40.38
														l-0.57,71.34l-0.14,13.55l-49.01,11.65l-0.5-28.24c0,0-20.68-2.47-21.66-23.02
														C344.91,256.1,345.6,235.58,346.43,217.02z"/>
												</g>
											</g>
										</g>
									</g>
								</g>
							</g>
						</g>
						<g>
							<g>
								<g>
									<g>
										<g>
											<g>
												<g>
													<g>
														<g>
															<path class="st9" d="M366.88,289.02c0,0,13.16,0.32,26.66-8.84c0,0-5.81,15.02-26.39,13.9L366.88,289.02z"/>
														</g>
													</g>
												</g>
											</g>
										</g>
									</g>
								</g>
							</g>
						</g>
						<g>
							<g>
								<g>
									<g>
										<g>
											<g>
												<g>
													<g>
														<g>
															<g>
																<g>
																	<g>
																		<path class="st6" d="M352.42,237.76c0,1.55,1.32,2.83,2.94,2.86c1.62,0.03,2.93-1.2,2.93-2.75
																			c0-1.55-1.31-2.83-2.93-2.86C353.73,234.97,352.41,236.2,352.42,237.76z"/>
																	</g>
																</g>
															</g>
														</g>
													</g>
												</g>
											</g>
										</g>
									</g>
								</g>
							</g>
						</g>
						<g>
							<g>
								<g>
									<g>
										<g>
											<g>
												<g>
													<g>
														<g>
															<g>
																<g>
																	<g>
																		<g>
																			<path class="st6" d="M351.02,227.98c0.38,0.37,2.54-1.36,5.7-1.46c3.15-0.15,5.53,1.39,5.86,0.99
																				c0.16-0.18-0.23-0.86-1.27-1.55c-1.02-0.7-2.74-1.35-4.71-1.27c-1.97,0.08-3.6,0.86-4.52,1.64
																				C351.13,227.11,350.83,227.81,351.02,227.98z"/>
																		</g>
																	</g>
																</g>
															</g>
														</g>
													</g>
												</g>
											</g>
										</g>
									</g>
								</g>
							</g>
						</g>
						<g>
							<g>
								<g>
									<g>
										<g>
											<g>
												<g>
													<g>
														<g>
															<g>
																<g>
																	<g>
																		<path class="st6" d="M377.81,237.11c0,1.55,1.32,2.83,2.94,2.86c1.62,0.03,2.93-1.2,2.93-2.76
																			c0-1.55-1.32-2.83-2.93-2.86C379.13,234.32,377.81,235.55,377.81,237.11z"/>
																	</g>
																</g>
															</g>
														</g>
													</g>
												</g>
											</g>
										</g>
									</g>
								</g>
							</g>
						</g>
						<g>
							<g>
								<g>
									<g>
										<g>
											<g>
												<g>
													<g>
														<g>
															<g>
																<g>
																	<g>
																		<g>
																			<path class="st6" d="M381.23,226.46c0.38,0.37,2.55-1.35,5.7-1.46c3.15-0.15,5.53,1.39,5.86,0.99
																				c0.16-0.18-0.23-0.86-1.27-1.55c-1.02-0.7-2.74-1.35-4.71-1.27c-1.97,0.08-3.6,0.86-4.52,1.64
																				C381.35,225.59,381.04,226.3,381.23,226.46z"/>
																		</g>
																	</g>
																</g>
															</g>
														</g>
													</g>
												</g>
											</g>
										</g>
									</g>
								</g>
							</g>
						</g>
						<g>
							<g>
								<g>
									<g>
										<g>
											<g>
												<g>
													<g>
														<g>
															<g>
																<g>
																	<g>
																		<path class="st6" d="M371.65,250.25c0.01-0.18-1.97-0.45-5.16-0.74c-0.81-0.05-1.58-0.19-1.73-0.73
																			c-0.21-0.58,0.1-1.46,0.45-2.41c0.69-1.98,1.41-4.05,2.17-6.23c3-8.86,5.14-16.14,4.79-16.26
																			c-0.36-0.12-3.08,6.97-6.08,15.84c-0.72,2.18-1.41,4.27-2.07,6.26c-0.27,0.93-0.76,1.99-0.31,3.18
																			c0.24,0.6,0.85,1.01,1.37,1.13c0.52,0.14,0.98,0.13,1.38,0.14C369.66,250.48,371.65,250.43,371.65,250.25z"/>
																	</g>
																</g>
															</g>
														</g>
													</g>
												</g>
											</g>
										</g>
									</g>
								</g>
							</g>
						</g>
						<g>
							<g>
								<g>
									<g>
										<g>
											<g>
												<g>
													<g>
														<g>
															<g>
																<g>
																	<g>
																		<path class="st6" d="M381.03,252.1c-0.51-0.01-0.4,3.42-3.25,5.96c-2.84,2.55-6.51,2.29-6.52,2.77
																			c-0.04,0.22,0.84,0.64,2.38,0.62c1.51,0,3.71-0.57,5.45-2.12c1.74-1.56,2.44-3.58,2.5-4.99
																			C381.67,252.91,381.26,252.07,381.03,252.1z"/>
																	</g>
																</g>
															</g>
														</g>
													</g>
												</g>
											</g>
										</g>
									</g>
								</g>
							</g>
						</g>
						<g>
							<g>
								<g>
									<g>
										<g>
											<g>
												<g>
													<g>
														<path class="st6" d="M380.86,217.44c0.4,0.81,3.1-0.03,6.41-0.09c3.31-0.14,6.09,0.53,6.4-0.3
															c0.13-0.39-0.45-1.12-1.63-1.78c-1.18-0.66-2.97-1.18-4.95-1.12c-1.98,0.06-3.71,0.69-4.8,1.42
															C381.18,216.29,380.68,217.05,380.86,217.44z"/>
													</g>
												</g>
											</g>
										</g>
									</g>
								</g>
							</g>
						</g>
						<g>
							<g>
								<g>
									<g>
										<g>
											<g>
												<g>
													<g>
														<path class="st6" d="M351.42,219.28c0.52,0.74,2.73,0.1,5.35,0.19c2.62,0,4.81,0.71,5.35-0.02
															c0.24-0.35-0.07-1.09-1.01-1.81c-0.92-0.72-2.49-1.35-4.29-1.38c-1.8-0.03-3.39,0.55-4.33,1.24
															C351.53,218.2,351.19,218.92,351.42,219.28z"/>
													</g>
												</g>
											</g>
										</g>
									</g>
								</g>
							</g>
						</g>
						<g>
							<g>
								<g>
									<g>
										<g>
											<g>
												<g>
													<path class="st6" d="M348.07,207.52c0,0,4.96-13.07,11.07-16.29c7.39-3.9,10.92,4.23,18.01,1.97
														c7.09-2.26,14.14-6,21.66-0.73c8.23,5.78,4.62,10.16,5.44,19.27c3.32,36.91,10.45,47.13,11.75,29.64
														c0.14-1.92,5.39-3.62,5.88-11.71c0.65-10.49,0.6-23.2-2-30.54c-2.19-6.18-5.91-10.38-12.47-14.92
														c-10.36-7.16-24.23-6.83-33.62-5.55C364.41,179.95,346.64,191.43,348.07,207.52z"/>
												</g>
											</g>
										</g>
									</g>
								</g>
							</g>
						</g>
						<g>
							<g>
								<g>
									<g>
										<g>
											<g>
												<g>
													<path class="st10" d="M414.67,240.87c0.02-3.18,2.66-5.78,5.83-5.59c3.85,0.23,8.19,2.25,8.22,10.19
														c0.05,14.07-14.09,11.22-14.11,10.82C414.59,256.01,414.64,246.76,414.67,240.87z"/>
												</g>
											</g>
										</g>
									</g>
								</g>
							</g>
						</g>
						<g>
							<g>
								<g>
									<g>
										<g>
											<g>
												<g>
													<path class="st9" d="M417.65,250.98c0.06-0.05,0.25,0.17,0.66,0.36c0.4,0.18,1.1,0.31,1.83,0.03
														c1.48-0.55,2.73-2.92,2.79-5.45c0.03-1.28-0.24-2.5-0.7-3.51c-0.43-1.03-1.1-1.74-1.85-1.87
														c-0.75-0.17-1.27,0.28-1.44,0.68c-0.19,0.39-0.1,0.67-0.17,0.7c-0.04,0.04-0.3-0.24-0.19-0.82
														c0.06-0.28,0.22-0.61,0.55-0.88c0.34-0.28,0.83-0.42,1.35-0.36c1.09,0.07,2.07,1.07,2.57,2.17
														c0.56,1.11,0.9,2.48,0.86,3.92c-0.08,2.84-1.52,5.49-3.55,6.09c-0.99,0.26-1.82-0.03-2.24-0.36
														C417.68,251.32,417.61,251,417.65,250.98z"/>
												</g>
											</g>
										</g>
									</g>
								</g>
							</g>
						</g>
					</g>
					<g>
						<g>
							<g>
								<g>
									<g>
										<g>
											<path class="st6" d="M413.43,213.65c-1.78,1.31-3.66,2.66-5.86,2.96c-2.19,0.3-4.75-0.88-5.2-3.04
												c-0.2-0.97,0-2.12-0.67-2.85c-0.8-0.87-2.21-0.54-3.38-0.38c-4.07,0.58-8.36-2.16-9.54-6.1
												c-0.99,1.6-3.42,1.62-5.04,0.66c-1.61-0.96-2.69-2.59-3.97-3.96c-1.28-1.37-3.06-2.57-4.91-2.24
												c-1.03,0.18-1.98,0.84-3.03,0.78c-1.85-0.1-2.83-2.23-3.17-4.05c-0.34-1.82-0.64-3.95-2.24-4.89
												c-1.48-0.87-3.34-0.27-5.03,0.04c-1.69,0.31-3.9-0.01-4.39-1.66c-0.26-0.86,0.08-1.79,0.54-2.57
												c2.07-3.52,6.78-5.22,10.62-3.83c1.21-4.69,5.42-8.46,10.22-9.14c4.8-0.68,9.89,1.77,12.36,5.94
												c2.88-2.8,7.15-4.09,11.09-3.33c3.94,0.75,7.44,3.52,9.09,7.19c3.39-1.02,7.33,0.16,9.6,2.88
												c2.27,2.72,2.72,6.81,1.11,9.96c2.58,1.35,4.83,3.79,4.99,6.69c0.16,2.91-2.58,5.91-5.41,5.24
												c1.21,2.22,0.4,5.33-1.75,6.68c-2.15,1.34-5.3,0.71-6.77-1.35"/>
										</g>
									</g>
								</g>
							</g>
						</g>
					</g>
				</g>
				<g>
					<g>
						<g>
							<g>
								<g>
									<g>
										<path class="st5" d="M422.23,207.88c0.05-0.04,0.3,1.17-0.78,2.73c-0.54,0.74-1.47,1.53-2.76,1.78
											c-1.26,0.26-2.82,0-4.05-1.02l0.59-0.11c-0.65,1.23-1.53,2.5-2.68,3.61c-0.74,0.7-1.58,1.31-2.5,1.68
											c-0.91,0.4-1.96,0.47-2.82,0.36c-1.79-0.13-3.38-1.03-4.14-2.18c-0.79-1.12-1.06-2.18-1.24-2.88
											c-0.17-0.71-0.2-1.12-0.15-1.13c0.06-0.02,0.19,0.37,0.45,1.04c0.26,0.66,0.62,1.66,1.39,2.63
											c1.4,1.97,5.78,2.84,8.45-0.1c1.07-1.03,1.92-2.22,2.56-3.38l0.23-0.42l0.36,0.31c1,0.87,2.34,1.14,3.43,0.96
											c1.11-0.17,1.96-0.8,2.5-1.43C422.15,209,422.1,207.85,422.23,207.88z"/>
									</g>
								</g>
							</g>
						</g>
					</g>
				</g>
			</g>
			<g>
				<path class="st10" d="M256.02,391.95c0,0-26.53-0.79-28.12-1.29c-1.59-0.5-5.46-0.6-7.35,0c-1.89,0.6-9.44,3.28-9.44,3.28
					l-16.03,4.27c0,0-16.1,10.53-15.77,12.64c0.34,2.11,2.09,3.55,4.97,2.46c2.88-1.09,17.42-8.64,17.42-8.64l15.96-1.69
					c0,0,21.83,7.84,26.23,7.45c4.41-0.39,15.7-2.3,15.7-2.3s1.59-11.31,0.79-13.1C259.6,393.25,256.02,391.95,256.02,391.95z"/>
				<g>
					<path class="st10" d="M180.47,420.22c0,0,13.44-14.42,17.17-16.36c3.73-1.94,24.46-5.35,24.46-5.35s6.64-2.75,9.07-1.78
						c2.43,0.97,28.18,4.86,29.32,5.02c1.13,0.16-5.51,22.68-5.51,22.68s-8.91,1.62-19.27-0.81c-10.37-2.43-13.93-5.67-13.93-5.67
						l-10.35-2.72l-6.33,2.41c0,0-1.14,9.37-5.67,8.89l-2.11-1.46l1.62-10.37l-6.64,2.75c0,0-5.18,7.77-9.07,6.64
						C179.34,422.98,180.47,420.22,180.47,420.22z"/>
					<g>
						<path class="st9" d="M180.47,420.22c0.03,0-0.16,0.38-0.1,1.12c0.04,0.37,0.17,0.83,0.5,1.27c0.33,0.44,0.86,0.83,1.52,1.11
							c0.66,0.28,1.46,0.52,2.33,0.33c0.86-0.2,1.73-0.68,2.57-1.31c1.69-1.27,3.33-3.12,4.88-5.36l0.03-0.04l0.04-0.02
							c1.99-0.83,4.23-1.77,6.63-2.78l0.27-0.11l-0.04,0.29c-0.48,3.12-1.02,6.62-1.59,10.37l-0.08-0.19
							c0.64,0.44,1.37,0.94,2.11,1.45l-0.09-0.03c0.85,0.08,1.69-0.25,2.34-0.86c0.65-0.6,1.16-1.39,1.55-2.25
							c0.78-1.71,1.27-3.64,1.55-5.61l0.02-0.13l0.12-0.05c1.97-0.76,4.12-1.58,6.33-2.42l0.07-0.03l0.07,0.02
							c3.27,0.85,6.76,1.77,10.35,2.71l0.05,0.01l0.05,0.04c2.03,1.59,4.59,2.69,7.16,3.65c2.6,0.93,5.34,1.69,8.15,2.27
							c2.82,0.58,5.74,0.89,8.7,0.98c2.96,0.08,5.99-0.03,8.98-0.5l-0.2,0.18c0.46-1.59,0.95-3.3,1.45-5.01
							c1.42-5.09,2.85-10.11,3.89-15.06c0.12-0.62,0.23-1.24,0.28-1.85c0.01-0.15,0.01-0.3,0-0.42c0.01-0.06-0.06-0.1,0.04-0.02
							c0.02,0.01,0.04,0.02,0.06,0.02l-0.03,0l-0.06-0.01l-0.12-0.02l-0.93-0.14c-1.24-0.19-2.48-0.38-3.7-0.57
							c-2.45-0.39-4.87-0.77-7.25-1.14c-4.76-0.77-9.37-1.52-13.79-2.37c-1.11-0.23-2.19-0.42-3.29-0.75
							c-0.98-0.38-2.07-0.25-3.11-0.09c-2.09,0.37-4.1,1.06-6,1.8l-0.03,0.01l-0.02,0c-7.25,1.22-13.88,2.41-19.66,3.8
							c-1.44,0.35-2.84,0.72-4.12,1.21c-1.27,0.5-2.28,1.4-3.27,2.21c-1.96,1.66-3.66,3.3-5.19,4.78c-3.06,2.97-5.38,5.37-6.98,7
							c-0.78,0.8-1.39,1.43-1.81,1.86C180.69,420.02,180.47,420.22,180.47,420.22s0.19-0.24,0.59-0.67c0.41-0.45,1-1.08,1.77-1.91
							c1.56-1.66,3.86-4.09,6.9-7.09c1.52-1.5,3.21-3.15,5.17-4.83c0.49-0.42,1-0.84,1.54-1.24c0.53-0.41,1.14-0.79,1.8-1.04
							c1.32-0.5,2.71-0.89,4.16-1.24c5.8-1.42,12.42-2.64,19.67-3.88l-0.05,0.01c1.93-0.76,3.93-1.46,6.09-1.85
							c1.06-0.16,2.24-0.32,3.34,0.11c1.01,0.31,2.13,0.5,3.22,0.73c4.41,0.83,9.02,1.58,13.78,2.34c2.38,0.37,4.8,0.75,7.24,1.13
							c1.23,0.19,2.46,0.37,3.7,0.56l0.93,0.14l0.12,0.02l0.06,0.01l0.03,0.01c0.04,0.01,0.07,0.02,0.11,0.04
							c0.23,0.17,0.19,0.31,0.22,0.4c0.02,0.2,0.02,0.36,0,0.53c-0.05,0.66-0.17,1.28-0.29,1.91c-1.04,5-2.47,10-3.9,15.11
							c-0.5,1.72-0.99,3.43-1.45,5.02l-0.05,0.16l-0.16,0.02c-3.06,0.48-6.09,0.59-9.09,0.5c-2.99-0.1-5.94-0.41-8.78-1
							c-2.84-0.59-5.59-1.35-8.22-2.3c-1.31-0.48-2.59-1.01-3.82-1.62c-1.23-0.62-2.41-1.26-3.49-2.14l0.1,0.05
							c-3.59-0.95-7.08-1.87-10.34-2.73l0.14-0.01c-2.21,0.84-4.36,1.66-6.33,2.41l0.14-0.18c-0.29,2.02-0.79,3.96-1.61,5.74
							c-0.4,0.88-0.94,1.72-1.65,2.37c-0.7,0.66-1.69,1.05-2.65,0.95l-0.05-0.01l-0.04-0.03c-0.74-0.51-1.46-1.02-2.1-1.46
							l-0.1-0.07l0.02-0.12c0.6-3.75,1.15-7.25,1.65-10.36l0.23,0.18c-2.41,0.99-4.65,1.91-6.65,2.73l0.06-0.05
							c-1.59,2.25-3.25,4.1-4.99,5.38c-0.87,0.63-1.76,1.12-2.67,1.31c-0.92,0.19-1.77-0.08-2.43-0.38
							c-0.68-0.3-1.22-0.71-1.55-1.18c-0.34-0.46-0.46-0.95-0.49-1.33C180.26,420.58,180.47,420.22,180.47,420.22z"/>
					</g>
				</g>
				<g>
					<path class="st9" d="M221.18,408.03c0,0.04-0.37,0.02-1.02-0.03c-0.65-0.05-1.6-0.14-2.76-0.26c-1.21-0.13-2.58-0.29-4.08-0.45
						c-0.39-0.05-0.78-0.09-1.18-0.14c-0.4-0.06-0.75-0.03-1.17,0.02c-0.81,0.11-1.66,0.31-2.52,0.52
						c-3.37,0.98-6.75,1.63-8.05,3.63c-0.69,0.91-1.01,1.8-1.2,2.42c-0.18,0.62-0.23,0.98-0.27,0.98c-0.03,0-0.05-0.37,0.07-1.03
						c0.13-0.65,0.41-1.59,1.1-2.59c0.35-0.49,0.8-0.99,1.37-1.41c0.57-0.41,1.28-0.76,2.01-1.02c1.46-0.53,3.09-1.04,4.83-1.49
						c0.87-0.22,1.73-0.41,2.58-0.52c0.41-0.06,0.89-0.08,1.29-0.01c0.4,0.05,0.79,0.11,1.18,0.16c1.5,0.21,2.87,0.4,4.07,0.57
						c1.16,0.17,2.1,0.31,2.74,0.43C220.83,407.91,221.19,407.99,221.18,408.03z"/>
				</g>
				<g>
					<path class="st9" d="M185.08,415.43c-0.02-0.02,0.37-0.43,1.11-1.12c0.75-0.69,1.85-1.66,3.24-2.82
						c1.4-1.16,3.08-2.52,5.02-3.93c0.98-0.7,2.02-1.42,3.14-2.1c0.57-0.33,1.16-0.66,1.79-0.94c0.65-0.28,1.31-0.45,1.98-0.64
						c5.37-1.48,10.4-1.87,13.98-2.4c1.73-0.21,3.16-0.39,4.26-0.53c1.01-0.11,1.57-0.16,1.57-0.12c0,0.04-0.55,0.15-1.54,0.32
						c-1.09,0.18-2.52,0.41-4.24,0.69c-3.57,0.63-8.58,1.08-13.89,2.54c-0.66,0.18-1.33,0.36-1.92,0.61
						c-0.6,0.26-1.18,0.57-1.73,0.9c-1.11,0.66-2.15,1.36-3.12,2.05c-1.95,1.38-3.65,2.7-5.07,3.82c-1.35,1.09-2.48,2-3.34,2.69
						C185.54,415.1,185.11,415.46,185.08,415.43z"/>
				</g>
			</g>
			<g>
				<path class="st7" d="M352.61,321.5c0,0-7.07,9.71-12.68,21.38c-4.8,10-20.35,44.05-20.35,44.05l-63.33,3.32l0.93,24.47
					c0,0,61.16,21.79,74.86,17.59c13.69-4.2,28.28-19.99,28.28-19.99l6.55-103.2C366.88,309.11,361.45,308.09,352.61,321.5z"/>
				<path class="st7" d="M365.85,309.35c0,0-16.24,36.83-18.61,52.43c-4.71,30.97-6.29,50.36-6.29,50.36l-5.52,47.93h108.15
					c0,0,3.58-88.83,1.28-118.62c-1.72-22.31-18.81-36.21-25.81-43.85c-0.42-0.46-2.35-6.71-2.35-6.71l-50.4,12.91L365.85,309.35z"
					/>
				<g>
					<path class="st6" d="M360.62,314.94c0.01,0-0.03,0.12-0.12,0.35c-0.1,0.25-0.24,0.58-0.41,1c-0.38,0.91-0.92,2.2-1.62,3.85
						c-1.39,3.35-3.4,8.2-5.41,14.35c-2.03,6.15-4.02,13.61-5.59,22.03c-1.61,8.41-2.91,17.75-4,27.57
						c-1.99,19.68-3.8,37.49-5.11,50.41c-0.67,6.43-1.21,11.64-1.59,15.27c-0.2,1.78-0.35,3.17-0.46,4.15
						c-0.06,0.45-0.1,0.81-0.13,1.08c-0.03,0.24-0.05,0.37-0.06,0.37c-0.01,0-0.01-0.13,0.01-0.37c0.02-0.27,0.05-0.63,0.08-1.08
						c0.09-0.98,0.21-2.38,0.36-4.16c0.34-3.64,0.83-8.86,1.43-15.29c1.25-12.91,2.9-30.74,4.95-50.43
						c1.09-9.84,2.41-19.18,4.05-27.6c1.6-8.43,3.63-15.91,5.71-22.06c2.07-6.15,4.13-10.99,5.58-14.32
						c0.72-1.67,1.31-2.94,1.71-3.81c0.19-0.41,0.35-0.74,0.46-0.98C360.56,315.05,360.61,314.94,360.62,314.94z"/>
				</g>
				<g class="st11">
					<path d="M416.81,372.92c-1-9.81-5.4-19.66-13.48-25.32l-65.94,94.17c11.64,6.28,24.57,12.76,37.5,9.99
						c6.96-1.49,13.14-5.59,18.16-10.64c10.43-10.49,16.09-24.78,20.06-39.02C415.76,392.6,417.8,382.73,416.81,372.92z"/>
				</g>
				<g>
					<g>
						<path class="st7" d="M424.28,361.55c-8.22,29.07-26.71,64.55-32.38,71.67c-11.09,13.92-25.75,16.93-34.5,16.93
							c-7.44,0-70.32-12.25-88.96-15.91c-3.15-0.62-5.61-3.06-6.27-6.19l-0.16-0.77l-8.39-2.26l4.47-22.51l0.89-1.25l89.93,2.83l0,0
							l26.16-72.87c0.49-0.83,8.05-25.28,28.54-24.17"/>
						<g>
							<path class="st6" d="M403.61,307.05c0,0-0.23,0.01-0.68,0.01c-0.45,0.01-1.12-0.04-2,0.05c-1.76,0.1-4.4,0.46-7.56,1.8
								c-3.13,1.36-6.68,3.81-9.87,7.61c-3.22,3.78-6.05,8.77-8.3,14.78l0.01-0.02c-6.61,18.46-15.58,43.53-26.09,72.89l-0.06,0.16
								l-0.17-0.01c-26.76-0.83-57.34-1.78-89.93-2.8l0.22-0.11c-0.28,0.39-0.58,0.82-0.89,1.25l0.04-0.1
								c-1.29,6.51-2.67,13.44-4.05,20.44c-0.14,0.71-0.28,1.42-0.41,2.07l-0.19-0.3c2.91,0.78,5.73,1.54,8.39,2.26l0.16,0.04
								l0.02,0.15c0.29,1.87,1.1,3.6,2.47,4.85c0.67,0.62,1.45,1.13,2.3,1.47c0.84,0.36,1.75,0.5,2.69,0.69
								c3.7,0.72,7.37,1.44,11.01,2.15c7.29,1.4,14.46,2.78,21.5,4.14c14.09,2.67,27.67,5.21,40.61,7.4c3.24,0.54,6.44,1.05,9.6,1.5
								c1.58,0.2,3.16,0.42,4.71,0.49c1.56,0.02,3.12-0.06,4.66-0.23c6.15-0.66,11.96-2.6,17-5.45c5.06-2.85,9.28-6.66,12.68-10.82
								c1.68-2.09,3.03-4.37,4.36-6.58c1.31-2.23,2.55-4.43,3.72-6.61c9.31-17.43,15.41-32.2,19.28-42.49
								c1.9-5.16,3.26-9.21,4.12-11.97c0.42-1.37,0.75-2.42,0.97-3.14c0.22-0.71,0.35-1.07,0.35-1.07s-0.09,0.37-0.3,1.08
								c-0.21,0.72-0.52,1.78-0.92,3.16c-0.83,2.77-2.15,6.83-4.03,12.01c-3.82,10.32-9.87,25.12-19.15,42.59
								c-1.17,2.18-2.4,4.39-3.71,6.63c-1.34,2.22-2.68,4.51-4.38,6.64c-3.42,4.2-7.68,8.05-12.78,10.94
								c-5.09,2.89-10.94,4.86-17.16,5.53c-1.55,0.18-3.13,0.26-4.71,0.24c-1.6-0.07-3.17-0.29-4.76-0.49
								c-3.17-0.44-6.37-0.96-9.62-1.49c-12.96-2.18-26.54-4.71-40.63-7.37c-7.04-1.35-14.22-2.73-21.5-4.13
								c-3.64-0.71-7.31-1.43-11.01-2.15c-0.91-0.18-1.88-0.33-2.78-0.71c-0.91-0.37-1.74-0.91-2.45-1.57
								c-1.46-1.31-2.34-3.23-2.63-5.12l0.19,0.2c-2.66-0.72-5.48-1.47-8.39-2.26l-0.24-0.06l0.05-0.24
								c0.13-0.65,0.27-1.36,0.41-2.07c1.39-7,2.76-13.93,4.06-20.43l0.01-0.05l0.03-0.05c0.31-0.43,0.61-0.86,0.89-1.25l0.08-0.11
								l0.14,0c32.59,1.04,63.17,2.01,89.93,2.86l-0.22,0.15c10.57-29.34,19.59-54.39,26.24-72.84l0.01-0.03
								c2.23-5.94,5.13-11.01,8.38-14.78c3.23-3.81,6.82-6.27,9.98-7.61c3.19-1.32,5.85-1.65,7.61-1.73
								c0.89-0.07,1.56-0.01,2.01-0.01C403.38,307.03,403.61,307.05,403.61,307.05z"/>
						</g>
					</g>
				</g>
				<g>
					<path class="st6" d="M329.1,398.32c-0.15,0.08-1.4-3.25-4.34-6.36c-2.9-3.15-6.13-4.63-6.04-4.78
						c0.02-0.05,0.86,0.24,2.09,0.95c1.23,0.71,2.84,1.88,4.33,3.47c1.48,1.6,2.54,3.28,3.16,4.56
						C328.92,397.45,329.15,398.3,329.1,398.32z"/>
				</g>
				<g>
					<path class="st6" d="M359.79,421.72c-0.09,0.01-0.26-1.15-0.79-2.97c-0.52-1.81-1.46-4.26-2.95-6.72
						c-1.5-2.45-3.25-4.41-4.63-5.7c-1.38-1.29-2.33-1.98-2.28-2.05c0.02-0.03,0.28,0.12,0.73,0.41c0.45,0.29,1.07,0.75,1.8,1.37
						c1.46,1.24,3.29,3.19,4.83,5.7c1.53,2.51,2.43,5.03,2.86,6.9c0.22,0.93,0.35,1.7,0.4,2.23
						C359.81,421.42,359.82,421.71,359.79,421.72z"/>
				</g>
				<g class="st11">
					<path d="M335.8,403.52l5.23,0.19c0.84-20.54,5.08-41.02,8.7-61.26C340.5,361.31,338.08,382.66,335.8,403.52z"/>
				</g>
				<g>
					<path class="st6" d="M417.3,297.6c0,0.02-0.17,0.08-0.49,0.17c-0.39,0.11-0.86,0.24-1.44,0.39c-1.33,0.35-3.12,0.83-5.3,1.41
						c-4.48,1.19-10.65,2.9-17.5,4.62c-6.86,1.73-13.13,3.07-17.71,3.82c-2.29,0.38-4.15,0.64-5.44,0.78
						c-0.6,0.06-1.09,0.11-1.49,0.15c-0.34,0.03-0.52,0.03-0.52,0.02c0-0.02,0.17-0.06,0.51-0.12c0.39-0.07,0.88-0.15,1.47-0.25
						c1.28-0.19,3.13-0.51,5.4-0.94c4.55-0.84,10.8-2.23,17.65-3.96c6.85-1.73,13.04-3.38,17.54-4.48c2.25-0.56,4.08-0.98,5.35-1.25
						c0.59-0.12,1.07-0.22,1.46-0.3C417.11,297.61,417.29,297.58,417.3,297.6z"/>
				</g>
			</g>
		</g>
	</g>
</g>
</svg>
